<?xml version="1.0" encoding="UTF-8"?>
<svg xmlns="http://www.w3.org/2000/svg" xmlns:xlink="http://www.w3.org/1999/xlink" width="1440px" height="944px" viewBox="0 0 1440 944" version="1.1">
<defs>
<linearGradient id="linear0" gradientUnits="userSpaceOnUse" x1="735.16" y1="773.17" x2="735.16" y2="152.968" >
<stop offset="0.00310497" style="stop-color:rgb(100%,94.117647%,89.019608%);stop-opacity:1;"/>
<stop offset="1" style="stop-color:rgb(100%,74.117647%,63.137255%);stop-opacity:1;"/>
</linearGradient>
<linearGradient id="linear1" gradientUnits="userSpaceOnUse" x1="708.944" y1="892.413" x2="708.944" y2="475.872" >
<stop offset="0" style="stop-color:rgb(63.529412%,58.039216%,49.411765%);stop-opacity:1;"/>
<stop offset="0.0001" style="stop-color:rgb(93.333333%,92.156863%,89.019608%);stop-opacity:1;"/>
<stop offset="1" style="stop-color:rgb(100%,88.627451%,48.627451%);stop-opacity:1;"/>
</linearGradient>
</defs>
<g id="surface1">
<path style=" stroke:none;fill-rule:nonzero;fill:url(#linear0);" d="M 1470.78125 662.457031 L 1419.941406 662.457031 L 1419.941406 335.214844 L 1304.230469 335.214844 L 1304.230469 662.457031 L 1244.109375 662.457031 L 1244.109375 514.308594 L 1217.441406 514.308594 L 1217.441406 461.328125 L 1174.28125 461.328125 L 1174.28125 604.089844 L 1165.691406 604.089844 L 1165.691406 447.734375 L 1145.351562 447.734375 L 1145.351562 521.105469 L 1125.011719 521.105469 L 1125.011719 385.144531 L 1057.441406 385.144531 L 1057.441406 594.476562 L 982.40625 594.476562 L 982.40625 415.148438 L 916.414062 415.148438 L 916.414062 547.125 L 873.023438 547.125 L 873.023438 459.921875 L 759.347656 459.921875 L 759.347656 578.300781 L 711.664062 578.300781 L 711.664062 379.753906 L 669.628906 379.753906 L 669.628906 493.914062 L 616.292969 493.914062 L 616.292969 379.753906 L 572.902344 379.753906 L 572.902344 580.882812 L 497.871094 580.882812 L 497.871094 532.121094 L 457.191406 532.121094 L 457.191406 473.519531 L 414.027344 473.519531 L 414.027344 602.679688 L 363.175781 602.679688 L 363.175781 379.753906 L 299.671875 379.753906 L 299.671875 609.480469 L 219.445312 609.480469 L 219.445312 515.714844 L 174.019531 515.714844 L 174.019531 379.753906 L 110.0625 379.753906 L 110.0625 579.710938 L 71.640625 579.710938 L 71.640625 387.957031 L -0.449219 387.957031 L -0.449219 857.023438 L 1470.78125 857.023438 Z M 1470.78125 662.457031 "/>
<path style=" stroke:none;fill-rule:nonzero;fill:url(#linear1);" d="M 21.921875 703.246094 L 69.382812 703.246094 L 69.382812 494.382812 L 177.632812 494.382812 L 177.632812 703.246094 L 233.679688 703.246094 L 233.679688 559.316406 L 258.539062 559.316406 L 258.539062 507.742188 L 298.992188 507.742188 L 298.992188 646.515625 L 306.902344 646.515625 L 306.902344 494.382812 L 326.113281 494.382812 L 326.113281 565.878906 L 345.097656 565.878906 L 345.097656 433.667969 L 407.925781 433.667969 L 407.925781 637.140625 L 477.984375 637.140625 L 477.984375 462.734375 L 539.679688 462.734375 L 539.679688 590.960938 L 580.132812 590.960938 L 580.132812 506.335938 L 686.351562 506.335938 L 686.351562 621.433594 L 730.871094 621.433594 L 730.871094 428.277344 L 770.195312 428.277344 L 770.195312 539.390625 L 819.914062 539.390625 L 819.914062 428.277344 L 860.367188 428.277344 L 860.367188 624.011719 L 930.429688 624.011719 L 930.429688 576.425781 L 968.394531 576.425781 L 968.394531 519.464844 L 1008.851562 519.464844 L 1008.851562 645.109375 L 1056.308594 645.109375 L 1056.308594 428.277344 L 1115.519531 428.277344 L 1115.519531 651.675781 L 1190.550781 651.675781 L 1190.550781 560.488281 L 1232.808594 560.488281 L 1232.808594 428.277344 L 1292.699219 428.277344 L 1292.699219 622.605469 L 1328.628906 622.605469 L 1328.628906 436.246094 L 1395.980469 436.246094 L 1395.980469 892.417969 L 21.921875 892.417969 Z M 21.921875 703.246094 "/>
<path style=" stroke:none;fill-rule:nonzero;fill:rgb(65.882353%,44.313725%,36.078431%);fill-opacity:1;" d="M 134.921875 707.464844 C 129.496094 515.480469 80.003906 330.058594 73.902344 308.019531 L 69.609375 308.019531 C 56.953125 421.945312 56.046875 575.957031 54.917969 753.878906 C 54.917969 770.523438 54.691406 787.636719 54.691406 804.511719 C 95.824219 765.835938 130.175781 714.496094 134.921875 707.464844 Z M 112.773438 628.234375 L 118.195312 628.234375 L 118.195312 646.984375 L 112.773438 646.984375 Z M 101.023438 628.234375 L 106.445312 628.234375 L 106.445312 646.984375 L 101.023438 646.984375 Z M 89.496094 553.6875 L 94.917969 553.6875 L 94.917969 572.441406 L 89.496094 572.441406 Z M 89.496094 583.695312 L 94.917969 583.695312 L 94.917969 602.445312 L 89.496094 602.445312 Z M 89.496094 628.234375 L 94.917969 628.234375 L 94.917969 646.984375 L 89.496094 646.984375 Z M 77.96875 433.667969 L 83.167969 433.667969 L 83.167969 452.421875 L 77.746094 452.421875 L 77.746094 433.667969 Z M 77.96875 458.28125 L 83.167969 458.28125 L 83.167969 477.035156 L 77.746094 477.035156 L 77.746094 458.28125 Z M 77.96875 481.488281 L 83.167969 481.488281 L 83.167969 500.242188 L 77.746094 500.242188 L 77.746094 481.488281 Z M 77.066406 553.6875 L 77.066406 572.441406 L 71.640625 572.441406 L 71.640625 553.6875 Z M 66.445312 458.28125 L 71.867188 458.28125 L 71.867188 477.035156 L 66.445312 477.035156 Z M 69.15625 658.472656 L 74.582031 658.472656 L 74.582031 677.226562 L 69.15625 677.226562 Z M 153.453125 453.59375 C 173.113281 452.65625 190.96875 450.3125 190.96875 444.449219 C 190.96875 435.542969 150.515625 434.605469 123.847656 434.839844 C 113.453125 391.003906 101.925781 350.214844 90.625 304.738281 L 79.324219 304.738281 C 83.394531 319.039062 135.371094 510.320312 141.023438 708.167969 L 141.023438 709.105469 L 140.570312 709.808594 C 140.117188 710.511719 100.796875 771.226562 54.015625 813.65625 L 52.433594 815.0625 C 52.207031 832.644531 52.207031 850.457031 51.980469 868.273438 L 166.5625 868.273438 C 166.5625 756.457031 161.589844 671.601562 153.679688 601.976562 L 153.679688 453.59375 Z M 134.921875 532.355469 L 129.496094 532.355469 L 129.496094 513.605469 L 134.921875 513.605469 Z M 134.921875 500.242188 L 129.496094 500.242188 L 129.496094 481.488281 L 134.921875 481.488281 Z M 134.921875 500.242188 "/>
<path style=" stroke:none;fill-rule:nonzero;fill:rgb(65.882353%,44.313725%,36.078431%);fill-opacity:1;" d="M 362.5 703.480469 L 362.5 863.820312 L 355.492188 863.820312 L 355.492188 703.480469 Z M 338.09375 703.480469 L 338.09375 863.820312 L 350.972656 863.820312 L 350.972656 703.480469 Z M 449.734375 703.480469 L 449.734375 863.820312 L 441.144531 863.820312 L 441.144531 809.4375 L 375.382812 809.4375 L 375.382812 863.820312 L 366.792969 863.820312 L 366.792969 703.480469 Z M 427.132812 743.097656 L 440.015625 743.097656 L 440.015625 710.042969 L 427.132812 710.042969 Z M 395.945312 743.097656 L 421.03125 743.097656 L 421.03125 710.042969 L 395.945312 710.042969 Z M 376.738281 743.097656 L 389.617188 743.097656 L 389.617188 710.042969 L 376.738281 710.042969 Z M 441.371094 785.058594 L 375.605469 785.058594 L 375.605469 798.886719 L 441.371094 798.886719 Z M 441.371094 753.410156 L 375.605469 753.410156 L 375.605469 776.617188 L 441.371094 776.617188 Z M 454.253906 703.480469 L 454.253906 863.820312 L 461.261719 863.820312 L 461.261719 703.480469 Z M 465.554688 703.480469 L 465.554688 863.820312 L 478.433594 863.820312 L 478.433594 703.480469 Z M 649.289062 681.445312 L 167.464844 681.445312 L 167.464844 696.914062 L 649.289062 696.914062 Z M 356.398438 643.234375 L 356.398438 676.757812 L 365.664062 676.757812 L 365.664062 651.910156 L 386.003906 651.910156 L 386.003906 676.757812 L 397.753906 676.757812 L 397.753906 651.910156 L 418.09375 651.910156 L 418.09375 676.757812 L 429.847656 676.757812 L 429.847656 651.910156 L 450.1875 651.910156 L 450.1875 676.757812 L 459.902344 676.757812 L 459.902344 643.234375 Z M 467.8125 630.34375 L 348.714844 630.34375 L 348.714844 638.546875 L 467.8125 638.546875 Z M 334.703125 823.265625 L 176.277344 823.265625 L 176.277344 863.820312 L 334.703125 863.820312 Z M 334.703125 816.234375 L 164.074219 816.234375 L 164.074219 806.386719 L 334.703125 806.386719 Z M 224.867188 703.480469 L 224.867188 798.183594 L 200.460938 798.183594 L 200.460938 703.480469 Z M 253.570312 703.480469 L 253.570312 798.183594 L 229.160156 798.183594 L 229.160156 703.480469 Z M 196.390625 703.480469 L 196.390625 798.183594 L 176.503906 798.183594 L 176.503906 703.480469 Z M 334.703125 703.480469 L 334.703125 798.183594 L 314.8125 798.183594 L 314.8125 703.480469 Z M 310.746094 703.480469 L 310.746094 798.183594 L 286.339844 798.183594 L 286.339844 703.480469 Z M 282.046875 703.480469 L 282.046875 798.183594 L 257.636719 798.183594 L 257.636719 703.480469 Z M 482.050781 863.820312 L 640.476562 863.820312 L 640.476562 823.265625 L 482.050781 823.265625 Z M 482.050781 806.386719 L 652.679688 806.386719 L 652.679688 816.234375 L 482.050781 816.234375 Z M 616.292969 703.480469 L 616.292969 798.183594 L 591.886719 798.183594 L 591.886719 703.480469 Z M 587.59375 703.480469 L 587.59375 798.183594 L 563.183594 798.183594 L 563.183594 703.480469 Z M 640.25 703.480469 L 640.25 798.183594 L 620.359375 798.183594 L 620.359375 703.480469 Z M 501.9375 703.480469 L 501.9375 798.183594 L 482.050781 798.183594 L 482.050781 703.480469 Z M 530.414062 703.480469 L 530.414062 798.183594 L 506.007812 798.183594 L 506.007812 703.480469 Z M 559.117188 703.480469 L 559.117188 798.183594 L 534.707031 798.183594 L 534.707031 703.480469 Z M 559.117188 703.480469 "/>
<path style=" stroke:none;fill-rule:nonzero;fill:rgb(65.882353%,44.313725%,36.078431%);fill-opacity:1;" d="M 1223.539062 782.710938 L 1216.308594 782.710938 L 1216.308594 719.1875 L 1223.539062 719.1875 Z M 1301.738281 788.105469 L 1308.96875 788.105469 L 1308.96875 863.820312 L 1216.539062 863.820312 L 1216.539062 788.105469 L 1223.769531 788.105469 L 1223.769531 863.820312 L 1228.519531 863.820312 L 1228.519531 788.105469 L 1296.988281 788.105469 L 1296.988281 863.820312 L 1301.738281 863.820312 Z M 1286.148438 828.421875 C 1286.148438 815.0625 1275.75 804.042969 1262.640625 804.042969 C 1249.761719 804.042969 1239.140625 814.828125 1239.140625 828.421875 L 1239.140625 863.585938 L 1243.660156 863.585938 L 1243.660156 828.65625 C 1243.660156 817.875 1252.019531 809.199219 1262.421875 809.199219 C 1272.808594 809.199219 1281.171875 817.875 1281.171875 828.65625 L 1281.171875 863.585938 L 1285.691406 863.585938 L 1285.691406 828.421875 Z M 1296.988281 713.792969 L 1296.988281 713.558594 C 1296.988281 693.867188 1281.628906 677.929688 1262.640625 677.929688 C 1243.660156 677.929688 1228.289062 693.867188 1228.289062 713.558594 L 1228.289062 713.792969 L 1241.621094 713.792969 C 1241.621094 713.558594 1241.621094 713.089844 1241.621094 712.855469 C 1241.621094 700.902344 1250.890625 691.289062 1262.421875 691.289062 C 1273.941406 691.289062 1283.210938 700.902344 1283.210938 712.855469 C 1283.210938 713.089844 1283.210938 713.558594 1283.210938 713.792969 Z M 1228.519531 782.710938 L 1240.71875 782.710938 L 1240.71875 753.175781 C 1240.71875 750.128906 1242.980469 747.785156 1245.921875 747.785156 C 1248.859375 747.785156 1251.121094 750.128906 1251.121094 753.175781 L 1251.121094 782.710938 L 1257.671875 782.710938 L 1257.671875 753.175781 C 1257.671875 750.128906 1259.929688 747.785156 1262.871094 747.785156 C 1265.808594 747.785156 1268.070312 750.128906 1268.070312 753.175781 L 1268.070312 782.710938 L 1274.621094 782.710938 L 1274.621094 753.175781 C 1274.621094 750.128906 1276.878906 747.785156 1279.820312 747.785156 C 1282.761719 747.785156 1285.019531 750.128906 1285.019531 753.175781 L 1285.019531 782.710938 L 1297.21875 782.710938 L 1297.21875 719.1875 L 1282.980469 719.1875 C 1280.5 728.09375 1272.359375 734.65625 1263.089844 734.65625 C 1253.828125 734.65625 1245.691406 728.09375 1243.210938 719.1875 L 1228.96875 719.1875 L 1228.96875 782.710938 Z M 1292.46875 668.785156 C 1284.558594 662.457031 1274.171875 658.707031 1262.640625 658.707031 C 1251.121094 658.707031 1240.71875 662.457031 1232.808594 668.785156 L 1216.539062 668.785156 L 1262.421875 587.210938 L 1308.96875 668.785156 Z M 1262.640625 628.234375 C 1256.539062 628.234375 1251.789062 633.390625 1251.789062 639.484375 C 1251.789062 645.8125 1256.769531 650.738281 1262.640625 650.738281 C 1268.738281 650.738281 1273.488281 645.578125 1273.488281 639.484375 C 1273.488281 633.15625 1268.738281 628.234375 1262.640625 628.234375 Z M 1254.050781 639.484375 C 1254.050781 634.5625 1257.898438 630.34375 1262.871094 630.34375 C 1267.609375 630.34375 1271.679688 634.328125 1271.679688 639.484375 C 1271.679688 644.640625 1267.839844 648.628906 1262.871094 648.628906 C 1257.898438 648.394531 1254.050781 644.40625 1254.050781 639.484375 Z M 1261.960938 639.484375 C 1261.960938 639.953125 1262.191406 640.1875 1262.640625 640.1875 L 1268.289062 640.1875 C 1268.738281 640.1875 1268.96875 639.953125 1268.96875 639.484375 C 1268.96875 639.015625 1268.738281 638.78125 1268.289062 638.78125 L 1263.320312 638.78125 L 1263.320312 632.21875 C 1263.320312 631.75 1263.089844 631.515625 1262.640625 631.515625 C 1262.191406 631.515625 1261.960938 631.75 1261.960938 632.21875 Z M 1301.738281 782.710938 L 1308.96875 782.710938 L 1308.96875 719.1875 L 1301.738281 719.1875 Z M 1279.820312 713.089844 C 1279.820312 722.9375 1272.128906 730.90625 1262.640625 730.90625 C 1253.148438 730.90625 1245.46875 722.9375 1245.46875 713.089844 C 1245.46875 703.246094 1253.148438 695.277344 1262.640625 695.277344 C 1272.128906 695.277344 1279.820312 703.246094 1279.820312 713.089844 Z M 1268.289062 707.230469 C 1269.648438 708.636719 1271.679688 708.636719 1272.808594 707.230469 C 1274.171875 705.824219 1274.171875 703.714844 1272.808594 702.542969 C 1271.460938 701.136719 1269.421875 701.136719 1268.289062 702.542969 C 1266.941406 703.949219 1266.941406 706.058594 1268.289062 707.230469 Z M 1259.480469 701.605469 C 1259.480469 703.480469 1260.828125 704.886719 1262.640625 704.886719 C 1264.449219 704.886719 1265.808594 703.480469 1265.808594 701.605469 C 1265.808594 699.730469 1264.449219 698.324219 1262.640625 698.324219 C 1260.828125 698.089844 1259.480469 699.730469 1259.480469 701.605469 Z M 1251.789062 716.371094 C 1253.601562 716.371094 1254.960938 714.964844 1254.960938 713.089844 C 1254.960938 711.214844 1253.601562 709.808594 1251.789062 709.808594 C 1249.988281 709.808594 1248.628906 711.214844 1248.628906 713.089844 C 1248.628906 714.964844 1249.988281 716.371094 1251.789062 716.371094 Z M 1257.21875 718.71875 C 1255.859375 717.3125 1253.828125 717.3125 1252.699219 718.71875 C 1251.339844 720.125 1251.339844 722.234375 1252.699219 723.40625 C 1254.050781 724.8125 1256.089844 724.8125 1257.21875 723.40625 C 1258.570312 722.234375 1258.570312 719.890625 1257.21875 718.71875 Z M 1257.21875 702.542969 C 1255.859375 701.136719 1253.828125 701.136719 1252.699219 702.542969 C 1251.339844 703.949219 1251.339844 706.058594 1252.699219 707.230469 C 1254.050781 708.636719 1256.089844 708.636719 1257.21875 707.230469 C 1258.570312 706.058594 1258.570312 703.949219 1257.21875 702.542969 Z M 1266.03125 724.34375 C 1266.03125 722.46875 1264.679688 721.0625 1262.871094 721.0625 C 1261.058594 721.0625 1259.699219 722.46875 1259.699219 724.34375 C 1259.699219 726.21875 1261.058594 727.625 1262.871094 727.625 C 1264.449219 727.859375 1266.03125 726.21875 1266.03125 724.34375 Z M 1266.941406 713.089844 C 1266.941406 710.746094 1265.128906 708.636719 1262.640625 708.636719 C 1260.160156 708.636719 1258.351562 710.511719 1258.351562 713.089844 C 1258.351562 715.671875 1260.160156 717.546875 1262.640625 717.546875 C 1265.128906 717.546875 1266.941406 715.433594 1266.941406 713.089844 Z M 1272.808594 718.71875 C 1271.460938 717.3125 1269.421875 717.3125 1268.289062 718.71875 C 1267.160156 720.125 1266.941406 722.234375 1268.289062 723.40625 C 1269.648438 724.8125 1271.679688 724.8125 1272.808594 723.40625 C 1274.171875 722.234375 1274.171875 719.890625 1272.808594 718.71875 Z M 1273.71875 709.574219 C 1271.910156 709.574219 1270.550781 710.980469 1270.550781 712.855469 C 1270.550781 714.730469 1271.910156 716.140625 1273.71875 716.140625 C 1275.519531 716.140625 1276.878906 714.730469 1276.878906 712.855469 C 1276.878906 710.980469 1275.519531 709.574219 1273.71875 709.574219 Z M 1308.96875 674.179688 L 1290.671875 674.179688 C 1288.410156 672.066406 1285.691406 670.191406 1282.761719 668.785156 C 1276.878906 665.738281 1270.101562 663.863281 1262.640625 663.863281 C 1255.410156 663.863281 1248.398438 665.738281 1242.53125 668.785156 C 1239.589844 670.191406 1237.101562 672.066406 1234.621094 674.179688 L 1216.308594 674.179688 L 1216.308594 714.027344 L 1223.539062 714.027344 L 1223.539062 713.558594 C 1223.539062 691.289062 1240.949219 673.007812 1262.640625 673.007812 C 1284.339844 673.007812 1301.738281 691.054688 1301.738281 713.558594 L 1301.738281 714.027344 L 1308.96875 714.027344 Z M 1263.769531 567.285156 L 1263.769531 547.125 L 1271 547.125 L 1271 544.3125 L 1263.769531 544.3125 L 1263.769531 537.515625 L 1261.058594 537.515625 L 1261.058594 544.3125 L 1254.28125 544.3125 L 1254.28125 547.125 L 1261.058594 547.125 L 1261.058594 566.347656 L 1207.949219 658.707031 L 1127.269531 658.707031 L 1127.269531 665.972656 L 1211.121094 665.972656 L 1262.421875 577.363281 L 1313.941406 665.972656 L 1397.789062 665.972656 L 1397.789062 658.707031 L 1317.109375 658.707031 Z M 1164.558594 644.640625 L 1153.488281 644.640625 L 1153.488281 646.753906 L 1164.558594 646.753906 Z M 1164.558594 641.125 L 1153.488281 641.125 L 1153.488281 643.234375 L 1164.558594 643.234375 Z M 1164.558594 619.558594 L 1153.488281 619.558594 L 1153.488281 621.667969 L 1164.558594 621.667969 Z M 1164.558594 637.375 L 1153.488281 637.375 L 1153.488281 639.484375 L 1164.558594 639.484375 Z M 1153.488281 653.550781 L 1164.558594 653.550781 L 1164.558594 651.675781 L 1153.488281 651.675781 Z M 1164.558594 648.15625 L 1153.488281 648.15625 L 1153.488281 650.269531 L 1164.558594 650.269531 Z M 1164.558594 633.859375 L 1153.488281 633.859375 L 1153.488281 635.96875 L 1164.558594 635.96875 Z M 1177.671875 611.121094 L 1181.28125 611.121094 C 1180.609375 610.886719 1180.148438 610.886719 1179.480469 610.886719 C 1178.800781 610.886719 1178.121094 610.886719 1177.671875 611.121094 Z M 1164.558594 616.511719 C 1164.558594 616.277344 1164.558594 616.277344 1164.558594 616.042969 L 1153.488281 616.042969 C 1153.488281 616.277344 1153.488281 616.277344 1153.488281 616.511719 L 1153.488281 618.152344 L 1164.558594 618.152344 Z M 1164.558594 623.308594 L 1153.488281 623.308594 L 1153.488281 625.421875 L 1164.558594 625.421875 Z M 1153.941406 614.636719 L 1164.328125 614.636719 C 1164.109375 613.933594 1163.660156 612.996094 1162.980469 612.527344 L 1155.070312 612.527344 C 1154.621094 613.230469 1154.160156 613.933594 1153.941406 614.636719 Z M 1164.558594 630.34375 L 1153.488281 630.34375 L 1153.488281 632.453125 L 1164.558594 632.453125 Z M 1138.570312 511.492188 L 1125.460938 511.492188 L 1130.210938 547.125 Z M 1184.898438 648.15625 L 1173.828125 648.15625 L 1173.828125 650.269531 L 1184.898438 650.269531 Z M 1213.601562 572.441406 L 1125.011719 572.441406 L 1115.519531 586.976562 L 1223.320312 586.976562 Z M 1211.121094 653.550781 L 1211.121094 593.539062 L 1127.269531 593.539062 L 1127.269531 653.550781 L 1152.128906 653.550781 L 1152.128906 616.511719 C 1152.128906 614.402344 1153.03125 612.527344 1154.621094 611.121094 C 1155.75 609.949219 1157.328125 609.480469 1159.140625 609.480469 C 1162.980469 609.480469 1165.921875 612.761719 1165.921875 616.511719 L 1165.921875 653.550781 L 1172.46875 653.550781 L 1172.46875 616.511719 C 1172.46875 614.402344 1173.371094 612.527344 1174.960938 611.121094 C 1176.089844 609.949219 1177.671875 609.480469 1179.480469 609.480469 C 1183.320312 609.480469 1186.261719 612.761719 1186.261719 616.511719 L 1186.261719 653.550781 Z M 1184.898438 644.640625 L 1173.828125 644.640625 L 1173.828125 646.753906 L 1184.898438 646.753906 Z M 1174.28125 614.636719 L 1184.671875 614.636719 C 1184.449219 613.933594 1184 612.996094 1183.320312 612.527344 L 1175.410156 612.527344 C 1174.960938 613.230469 1174.5 613.933594 1174.28125 614.636719 Z M 1212.921875 511.492188 L 1199.820312 511.492188 L 1208.179688 547.125 Z M 1167.71875 376.234375 L 1160.941406 376.234375 L 1160.941406 373.421875 L 1167.71875 373.421875 L 1167.71875 366.625 L 1170.441406 366.625 L 1170.441406 373.421875 L 1177.671875 373.421875 L 1177.671875 376.234375 L 1170.210938 376.234375 L 1170.210938 402.726562 L 1172.699219 402.726562 L 1172.699219 405.304688 L 1170.210938 405.304688 L 1171.109375 408.820312 L 1175.410156 408.820312 L 1175.410156 411.398438 L 1171.789062 411.398438 L 1212.019531 569.160156 L 1190.320312 569.160156 L 1170.441406 411.398438 L 1170.210938 411.398438 L 1187.839844 569.160156 L 1179.25 569.160156 L 1179.25 517.121094 L 1168.851562 494.148438 L 1158.460938 517.121094 L 1158.460938 569.160156 L 1149.871094 569.160156 L 1167.5 411.398438 L 1167.949219 411.398438 L 1148.058594 569.160156 L 1126.371094 569.160156 L 1166.589844 411.398438 L 1162.980469 411.398438 L 1162.980469 408.820312 L 1167.269531 408.820312 L 1168.179688 405.304688 L 1165.691406 405.304688 L 1165.691406 402.726562 L 1167.71875 402.726562 Z M 1169.761719 405.304688 L 1170.210938 408.820312 Z M 1168.398438 408.820312 L 1168.851562 405.304688 Z M 1162.300781 517.824219 L 1162.300781 568.925781 L 1176.089844 568.925781 L 1176.089844 517.824219 L 1169.078125 502.351562 Z M 1157.328125 611.121094 L 1160.941406 611.121094 C 1160.269531 610.886719 1159.808594 610.886719 1159.140625 610.886719 C 1158.460938 610.886719 1157.78125 610.886719 1157.328125 611.121094 Z M 1173.828125 653.550781 L 1184.898438 653.550781 L 1184.898438 651.675781 L 1173.828125 651.675781 Z M 1184.898438 619.558594 L 1173.828125 619.558594 L 1173.828125 621.667969 L 1184.898438 621.667969 Z M 1184.898438 623.308594 L 1173.828125 623.308594 L 1173.828125 625.421875 L 1184.898438 625.421875 Z M 1184.898438 616.511719 C 1184.898438 616.277344 1184.898438 616.277344 1184.898438 616.042969 L 1173.828125 616.042969 C 1173.828125 616.277344 1173.828125 616.277344 1173.828125 616.511719 L 1173.828125 618.152344 L 1184.898438 618.152344 Z M 1184.898438 626.824219 L 1173.828125 626.824219 L 1173.828125 628.9375 L 1184.898438 628.9375 Z M 1184.898438 633.859375 L 1173.828125 633.859375 L 1173.828125 635.96875 L 1184.898438 635.96875 Z M 1184.898438 637.375 L 1173.828125 637.375 L 1173.828125 639.484375 L 1184.898438 639.484375 Z M 1184.898438 630.34375 L 1173.828125 630.34375 L 1173.828125 632.453125 L 1184.898438 632.453125 Z M 1184.898438 641.125 L 1173.828125 641.125 L 1173.828125 643.234375 L 1184.898438 643.234375 Z M 1164.558594 626.824219 L 1153.488281 626.824219 L 1153.488281 628.9375 L 1164.558594 628.9375 Z M 1127.269531 729.96875 L 1143.320312 729.96875 L 1143.320312 700.902344 C 1143.320312 686.132812 1154.839844 674.179688 1169.078125 674.179688 C 1183.320312 674.179688 1194.839844 686.132812 1194.839844 700.902344 L 1194.839844 729.96875 L 1210.890625 729.96875 L 1210.890625 671.363281 L 1127.269531 671.363281 Z M 1127.269531 788.105469 L 1211.121094 788.105469 L 1211.121094 863.820312 L 1127.269531 863.820312 Z M 1145.800781 863.820312 L 1150.320312 863.820312 L 1150.320312 828.890625 C 1150.320312 818.109375 1158.679688 809.4375 1169.078125 809.4375 C 1179.480469 809.4375 1187.839844 818.109375 1187.839844 828.890625 L 1187.839844 863.820312 L 1192.359375 863.820312 L 1192.359375 828.65625 C 1192.359375 815.296875 1181.960938 804.277344 1168.851562 804.277344 C 1155.75 804.277344 1145.351562 815.0625 1145.351562 828.65625 L 1145.351562 863.820312 Z M 1182.871094 729.96875 L 1182.871094 699.730469 C 1182.871094 696.683594 1180.609375 694.339844 1177.671875 694.339844 C 1174.730469 694.339844 1172.46875 696.683594 1172.46875 699.730469 L 1172.46875 729.96875 L 1165.921875 729.96875 L 1165.921875 699.730469 C 1165.921875 696.683594 1163.660156 694.339844 1160.71875 694.339844 C 1157.78125 694.339844 1155.519531 696.683594 1155.519531 699.730469 L 1155.519531 729.96875 L 1148.058594 729.96875 L 1148.058594 700.902344 C 1148.058594 688.945312 1157.550781 679.101562 1169.078125 679.101562 C 1180.609375 679.101562 1190.101562 688.945312 1190.101562 700.902344 L 1190.101562 729.96875 Z M 1172.238281 685.898438 C 1172.238281 684.257812 1170.890625 682.851562 1169.308594 682.851562 C 1167.71875 682.851562 1166.371094 684.257812 1166.371094 685.898438 C 1166.371094 687.539062 1167.71875 688.945312 1169.308594 688.945312 C 1170.890625 688.945312 1172.238281 687.773438 1172.238281 685.898438 Z M 1127.269531 782.710938 L 1155.519531 782.710938 L 1155.519531 752.472656 C 1155.519531 749.425781 1157.78125 747.082031 1160.71875 747.082031 C 1163.660156 747.082031 1165.921875 749.425781 1165.921875 752.472656 L 1165.921875 782.710938 L 1172.46875 782.710938 L 1172.46875 752.472656 C 1172.46875 749.425781 1174.730469 747.082031 1177.671875 747.082031 C 1180.609375 747.082031 1182.871094 749.425781 1182.871094 752.472656 L 1182.871094 782.710938 L 1211.121094 782.710938 L 1211.121094 735.359375 L 1127.269531 735.359375 Z M 1360.269531 635.96875 L 1371.351562 635.96875 L 1371.351562 633.859375 L 1360.269531 633.859375 Z M 1360.269531 643.234375 L 1371.351562 643.234375 L 1371.351562 641.125 L 1360.269531 641.125 Z M 1360.269531 632.453125 L 1371.351562 632.453125 L 1371.351562 630.34375 L 1360.269531 630.34375 Z M 1360.269531 639.71875 L 1371.351562 639.71875 L 1371.351562 637.609375 L 1360.269531 637.609375 Z M 1360.269531 616.511719 L 1360.269531 618.152344 L 1371.351562 618.152344 L 1371.351562 616.511719 C 1371.351562 616.277344 1371.351562 616.277344 1371.351562 616.042969 L 1360.269531 616.042969 C 1360.269531 616.277344 1360.269531 616.277344 1360.269531 616.511719 Z M 1360.269531 646.753906 L 1371.351562 646.753906 L 1371.351562 644.640625 L 1360.269531 644.640625 Z M 1360.269531 628.9375 L 1371.351562 628.9375 L 1371.351562 626.824219 L 1360.269531 626.824219 Z M 1360.269531 621.902344 L 1371.351562 621.902344 L 1371.351562 619.792969 L 1360.269531 619.792969 Z M 1360.269531 625.421875 L 1371.351562 625.421875 L 1371.351562 623.308594 L 1360.269531 623.308594 Z M 1360.269531 653.550781 L 1371.351562 653.550781 L 1371.351562 651.675781 L 1360.269531 651.675781 Z M 1364.109375 611.121094 L 1367.730469 611.121094 C 1367.050781 610.886719 1366.601562 610.886719 1365.921875 610.886719 C 1365.238281 610.886719 1364.570312 610.886719 1364.109375 611.121094 Z M 1313.71875 653.550781 L 1338.578125 653.550781 L 1338.578125 616.511719 C 1338.578125 614.402344 1339.480469 612.527344 1341.058594 611.121094 C 1342.191406 609.949219 1343.769531 609.480469 1345.578125 609.480469 C 1349.421875 609.480469 1352.359375 612.761719 1352.359375 616.511719 L 1352.359375 653.550781 L 1358.921875 653.550781 L 1358.921875 616.511719 C 1358.921875 614.402344 1359.820312 612.527344 1361.398438 611.121094 C 1362.53125 609.949219 1364.109375 609.480469 1365.921875 609.480469 C 1369.761719 609.480469 1372.699219 612.761719 1372.699219 616.511719 L 1372.699219 653.550781 L 1397.558594 653.550781 L 1397.558594 593.539062 L 1313.71875 593.539062 Z M 1354.171875 376.234375 L 1347.390625 376.234375 L 1347.390625 373.421875 L 1354.171875 373.421875 L 1354.171875 366.625 L 1356.878906 366.625 L 1356.878906 373.421875 L 1364.109375 373.421875 L 1364.109375 376.234375 L 1356.878906 376.234375 L 1356.878906 402.726562 L 1359.371094 402.726562 L 1359.371094 405.304688 L 1356.660156 405.304688 L 1357.558594 408.820312 L 1361.851562 408.820312 L 1361.851562 411.398438 L 1358.238281 411.398438 L 1398.46875 569.160156 L 1376.769531 569.160156 L 1356.878906 411.398438 L 1356.660156 411.398438 L 1374.28125 569.160156 L 1365.699219 569.160156 L 1365.699219 517.121094 L 1355.300781 494.148438 L 1344.898438 517.121094 L 1344.898438 569.160156 L 1336.320312 569.160156 L 1353.941406 411.398438 L 1353.71875 411.398438 L 1333.828125 569.160156 L 1312.140625 569.160156 L 1352.359375 411.398438 L 1348.75 411.398438 L 1348.75 408.820312 L 1353.039062 408.820312 L 1353.941406 405.304688 L 1351.230469 405.304688 L 1351.230469 402.726562 L 1353.269531 402.726562 L 1353.269531 376.234375 Z M 1356.199219 405.304688 L 1356.660156 408.820312 Z M 1354.621094 408.820312 L 1355.070312 405.304688 Z M 1399.371094 511.492188 L 1386.261719 511.492188 L 1394.621094 547.125 Z M 1325.019531 511.492188 L 1311.910156 511.492188 L 1316.660156 547.125 Z M 1348.75 517.824219 L 1348.75 568.925781 L 1362.53125 568.925781 L 1362.53125 517.824219 L 1355.53125 502.351562 Z M 1400.050781 572.441406 L 1311.460938 572.441406 L 1301.96875 586.976562 L 1409.769531 586.976562 Z M 1360.269531 650.269531 L 1371.351562 650.269531 L 1371.351562 648.15625 L 1360.269531 648.15625 Z M 1369.308594 729.96875 L 1369.308594 699.730469 C 1369.308594 696.683594 1367.050781 694.339844 1364.109375 694.339844 C 1361.179688 694.339844 1358.921875 696.683594 1358.921875 699.730469 L 1358.921875 729.96875 L 1352.359375 729.96875 L 1352.359375 699.730469 C 1352.359375 696.683594 1350.101562 694.339844 1347.160156 694.339844 C 1344.230469 694.339844 1341.96875 696.683594 1341.96875 699.730469 L 1341.96875 729.96875 L 1334.511719 729.96875 L 1334.511719 700.902344 C 1334.511719 688.945312 1344 679.101562 1355.53125 679.101562 C 1367.050781 679.101562 1376.539062 688.945312 1376.539062 700.902344 L 1376.539062 729.96875 Z M 1358.691406 685.898438 C 1358.691406 684.257812 1357.328125 682.851562 1355.75 682.851562 C 1354.171875 682.851562 1352.808594 684.257812 1352.808594 685.898438 C 1352.808594 687.539062 1354.171875 688.945312 1355.75 688.945312 C 1357.328125 688.945312 1358.691406 687.773438 1358.691406 685.898438 Z M 1339.929688 616.511719 L 1339.929688 618.152344 L 1351.011719 618.152344 L 1351.011719 616.511719 C 1351.011719 616.277344 1351.011719 616.277344 1351.011719 616.042969 L 1339.929688 616.042969 C 1339.929688 616.277344 1339.929688 616.277344 1339.929688 616.511719 Z M 1343.550781 611.121094 L 1347.160156 611.121094 C 1346.488281 610.886719 1346.03125 610.886719 1345.359375 610.886719 C 1344.898438 610.886719 1344.230469 610.886719 1343.550781 611.121094 Z M 1339.929688 621.902344 L 1351.011719 621.902344 L 1351.011719 619.792969 L 1339.929688 619.792969 Z M 1339.929688 625.421875 L 1351.011719 625.421875 L 1351.011719 623.308594 L 1339.929688 623.308594 Z M 1340.160156 614.636719 L 1350.550781 614.636719 C 1350.328125 613.933594 1349.878906 612.996094 1349.199219 612.527344 L 1341.289062 612.527344 C 1341.058594 613.230469 1340.609375 613.933594 1340.160156 614.636719 Z M 1313.71875 788.105469 L 1397.558594 788.105469 L 1397.558594 863.820312 L 1313.71875 863.820312 Z M 1332.25 863.820312 L 1336.769531 863.820312 L 1336.769531 828.890625 C 1336.769531 818.109375 1345.128906 809.4375 1355.53125 809.4375 C 1365.921875 809.4375 1374.28125 818.109375 1374.28125 828.890625 L 1374.28125 863.820312 L 1378.800781 863.820312 L 1378.800781 828.65625 C 1378.800781 815.296875 1368.410156 804.277344 1355.300781 804.277344 C 1342.421875 804.277344 1331.800781 815.0625 1331.800781 828.65625 L 1331.800781 863.820312 Z M 1313.71875 729.96875 L 1329.761719 729.96875 L 1329.761719 700.902344 C 1329.761719 686.132812 1341.289062 674.179688 1355.53125 674.179688 C 1369.761719 674.179688 1381.289062 686.132812 1381.289062 700.902344 L 1381.289062 729.96875 L 1397.339844 729.96875 L 1397.339844 671.363281 L 1313.488281 671.363281 L 1313.488281 729.96875 Z M 1313.71875 782.710938 L 1341.96875 782.710938 L 1341.96875 752.472656 C 1341.96875 749.425781 1344.230469 747.082031 1347.160156 747.082031 C 1350.101562 747.082031 1352.359375 749.425781 1352.359375 752.472656 L 1352.359375 782.710938 L 1358.921875 782.710938 L 1358.921875 752.472656 C 1358.921875 749.425781 1361.179688 747.082031 1364.109375 747.082031 C 1367.050781 747.082031 1369.308594 749.425781 1369.308594 752.472656 L 1369.308594 782.710938 L 1397.558594 782.710938 L 1397.558594 735.359375 L 1313.71875 735.359375 Z M 1339.929688 639.71875 L 1351.011719 639.71875 L 1351.011719 637.609375 L 1339.929688 637.609375 Z M 1339.929688 643.234375 L 1351.011719 643.234375 L 1351.011719 641.125 L 1339.929688 641.125 Z M 1339.929688 650.269531 L 1351.011719 650.269531 L 1351.011719 648.15625 L 1339.929688 648.15625 Z M 1339.929688 628.9375 L 1351.011719 628.9375 L 1351.011719 626.824219 L 1339.929688 626.824219 Z M 1339.929688 653.550781 L 1351.011719 653.550781 L 1351.011719 651.675781 L 1339.929688 651.675781 Z M 1339.929688 646.753906 L 1351.011719 646.753906 L 1351.011719 644.640625 L 1339.929688 644.640625 Z M 1339.929688 632.453125 L 1351.011719 632.453125 L 1351.011719 630.34375 L 1339.929688 630.34375 Z M 1339.929688 635.96875 L 1351.011719 635.96875 L 1351.011719 633.859375 L 1339.929688 633.859375 Z M 1360.5 614.636719 L 1370.890625 614.636719 C 1370.671875 613.933594 1370.21875 612.996094 1369.539062 612.527344 L 1361.628906 612.527344 C 1361.398438 613.230469 1360.949219 613.933594 1360.5 614.636719 Z M 1360.5 614.636719 "/>
<path style=" stroke:none;fill-rule:nonzero;fill:rgb(65.882353%,44.313725%,36.078431%);fill-opacity:1;" d="M 795.507812 718.246094 L 802.289062 718.246094 L 802.289062 862.882812 L 795.507812 862.882812 Z M 856.527344 753.878906 L 880.484375 753.878906 L 880.484375 729.03125 L 856.527344 729.03125 Z M 934.949219 718.246094 L 934.949219 862.882812 L 941.726562 862.882812 L 941.726562 718.246094 Z M 810.425781 718.246094 L 926.8125 718.246094 L 926.8125 862.882812 L 903.308594 862.882812 L 903.308594 798.652344 C 903.308594 778.726562 887.714844 762.785156 868.730469 762.785156 C 849.519531 762.785156 834.152344 778.960938 834.152344 798.652344 L 834.152344 862.882812 L 810.648438 862.882812 L 810.648438 718.246094 Z M 852.910156 757.863281 L 884.324219 757.863281 L 884.324219 725.28125 L 852.910156 725.28125 Z M 953.929688 706.058594 L 783.304688 706.058594 L 783.304688 714.496094 L 953.929688 714.496094 Z M 840.253906 629.171875 L 896.980469 629.171875 L 896.980469 691.289062 L 840.253906 691.289062 Z M 842.742188 660.582031 C 842.742188 675.351562 854.265625 687.304688 868.503906 687.304688 C 882.742188 687.304688 894.269531 675.351562 894.269531 660.582031 C 894.269531 645.8125 882.742188 633.859375 868.503906 633.859375 C 854.265625 633.625 842.742188 645.578125 842.742188 660.582031 Z M 846.355469 660.582031 C 846.355469 647.925781 856.300781 637.609375 868.503906 637.609375 C 880.710938 637.609375 890.652344 647.925781 890.652344 660.582031 C 890.652344 673.242188 880.710938 683.554688 868.503906 683.554688 C 856.300781 683.554688 846.355469 673.242188 846.355469 660.582031 Z M 867.375 644.640625 L 867.375 663.863281 L 880.710938 663.863281 C 881.160156 663.863281 881.613281 663.394531 881.613281 662.925781 C 881.613281 662.457031 881.160156 661.988281 880.710938 661.988281 L 869.183594 661.988281 L 869.183594 644.640625 C 869.183594 644.171875 868.730469 643.703125 868.277344 643.703125 C 867.601562 643.703125 867.375 644.171875 867.375 644.640625 Z M 813.589844 703.011719 L 821.496094 703.011719 L 821.496094 616.042969 L 813.589844 616.042969 Z M 824.660156 616.042969 L 912.800781 616.042969 L 912.800781 703.011719 L 824.660156 703.011719 Z M 837.316406 694.808594 L 899.917969 694.808594 L 899.917969 625.890625 L 837.316406 625.890625 Z M 915.738281 616.042969 L 915.738281 703.011719 L 923.648438 703.011719 L 923.648438 616.042969 Z M 932.6875 604.320312 L 804.546875 604.320312 L 804.546875 610.417969 L 809.066406 610.417969 L 809.066406 613.699219 L 928.167969 613.699219 L 928.167969 610.417969 L 932.6875 610.417969 Z M 924.101562 586.273438 L 924.101562 601.507812 L 813.136719 601.507812 L 813.136719 586.273438 Z M 910.089844 594.710938 C 910.089844 593.070312 908.730469 591.664062 907.148438 591.664062 L 830.085938 591.664062 C 828.503906 591.664062 827.148438 593.070312 827.148438 594.710938 C 827.148438 596.351562 828.503906 597.757812 830.085938 597.757812 L 907.148438 597.757812 C 908.730469 597.523438 910.089844 596.351562 910.089844 594.710938 Z M 799.574219 583.929688 L 937.660156 583.929688 L 870.085938 556.734375 L 869.636719 541.265625 C 871.894531 540.796875 873.476562 538.6875 873.476562 536.34375 C 873.476562 533.761719 871.667969 531.886719 869.410156 531.417969 L 868.730469 503.523438 L 868.054688 531.417969 C 865.792969 531.886719 863.984375 533.761719 863.984375 536.34375 C 863.984375 538.6875 865.566406 540.796875 867.828125 541.265625 L 867.375 556.734375 Z M 673.921875 767.242188 L 790.085938 767.242188 L 790.085938 759.738281 L 673.921875 759.738281 Z M 681.152344 863.820312 L 673.695312 863.820312 L 673.695312 772.632812 L 681.152344 772.632812 Z M 731.777344 780.835938 L 746.917969 780.835938 L 746.917969 799.589844 L 731.777344 799.589844 Z M 688.839844 772.632812 L 688.839844 863.820312 L 706.015625 863.820312 L 706.015625 821.625 L 772.90625 821.625 L 772.90625 863.820312 L 790.085938 863.820312 L 790.085938 772.632812 Z M 729.742188 778.257812 L 748.953125 778.257812 L 748.953125 802.167969 L 729.742188 802.167969 Z M 720.476562 816.703125 L 705.789062 816.703125 L 705.789062 816 L 720.476562 816 Z M 720.476562 815.296875 L 705.789062 815.296875 L 705.789062 814.359375 L 720.476562 814.359375 Z M 720.476562 813.65625 L 705.789062 813.65625 L 705.789062 812.71875 L 720.476562 812.71875 Z M 720.476562 812.25 L 705.789062 812.25 L 705.789062 811.078125 L 720.476562 811.078125 Z M 720.476562 810.609375 L 705.789062 810.609375 L 705.789062 809.671875 L 720.476562 809.671875 Z M 720.476562 808.96875 L 705.789062 808.96875 L 705.789062 808.265625 L 720.476562 808.265625 Z M 738.78125 816.703125 L 721.605469 816.703125 L 721.605469 816 L 738.78125 816 Z M 738.78125 815.296875 L 721.605469 815.296875 L 721.605469 814.359375 L 738.78125 814.359375 Z M 738.78125 813.65625 L 721.605469 813.65625 L 721.605469 812.71875 L 738.78125 812.71875 Z M 738.78125 812.25 L 721.605469 812.25 L 721.605469 811.078125 L 738.78125 811.078125 Z M 738.78125 810.609375 L 721.605469 810.609375 L 721.605469 809.671875 L 738.78125 809.671875 Z M 738.78125 808.96875 L 721.605469 808.96875 L 721.605469 808.265625 L 738.78125 808.265625 Z M 757.089844 816.703125 L 739.914062 816.703125 L 739.914062 816 L 757.089844 816 Z M 757.089844 815.296875 L 739.914062 815.296875 L 739.914062 814.359375 L 757.089844 814.359375 Z M 757.089844 813.65625 L 739.914062 813.65625 L 739.914062 812.71875 L 757.089844 812.71875 Z M 757.089844 812.25 L 739.914062 812.25 L 739.914062 811.078125 L 757.089844 811.078125 Z M 757.089844 810.609375 L 739.914062 810.609375 L 739.914062 809.671875 L 757.089844 809.671875 Z M 757.089844 808.96875 L 739.914062 808.96875 L 739.914062 808.265625 L 757.089844 808.265625 Z M 772.90625 816.703125 L 758.21875 816.703125 L 758.21875 816 L 772.90625 816 Z M 772.90625 815.296875 L 758.21875 815.296875 L 758.21875 814.359375 L 772.90625 814.359375 Z M 772.90625 813.65625 L 758.21875 813.65625 L 758.21875 812.71875 L 772.90625 812.71875 Z M 772.90625 812.25 L 758.21875 812.25 L 758.21875 811.078125 L 772.90625 811.078125 Z M 772.90625 810.609375 L 758.21875 810.609375 L 758.21875 809.671875 L 772.90625 809.671875 Z M 772.90625 808.96875 L 758.21875 808.96875 L 758.21875 808.265625 L 772.90625 808.265625 Z M 790.085938 720.359375 L 700.589844 754.816406 L 717.992188 754.816406 L 789.859375 727.15625 L 789.859375 720.359375 Z M 790.085938 754.816406 L 732.230469 754.816406 L 790.085938 733.015625 Z M 1063.988281 759.738281 L 947.828125 759.738281 L 947.828125 767.242188 L 1063.988281 767.242188 Z M 1056.761719 772.632812 L 1064.21875 772.632812 L 1064.21875 863.820312 L 1056.761719 863.820312 Z M 1006.140625 799.355469 L 990.996094 799.355469 L 990.996094 780.601562 L 1006.140625 780.601562 Z M 947.828125 772.632812 L 947.828125 863.820312 L 965.003906 863.820312 L 965.003906 821.625 L 1031.898438 821.625 L 1031.898438 863.820312 L 1049.078125 863.820312 L 1049.078125 772.632812 Z M 1008.171875 801.933594 L 988.960938 801.933594 L 988.960938 778.257812 L 1008.171875 778.257812 Z M 1017.441406 816 L 1032.128906 816 L 1032.128906 816.703125 L 1017.441406 816.703125 Z M 1017.441406 814.359375 L 1032.128906 814.359375 L 1032.128906 815.296875 L 1017.441406 815.296875 Z M 1017.441406 812.71875 L 1032.128906 812.71875 L 1032.128906 813.65625 L 1017.441406 813.65625 Z M 1017.441406 811.078125 L 1032.128906 811.078125 L 1032.128906 812.015625 L 1017.441406 812.015625 Z M 1017.441406 809.4375 L 1032.128906 809.4375 L 1032.128906 810.371094 L 1017.441406 810.371094 Z M 1017.441406 808.265625 L 1032.128906 808.265625 L 1032.128906 808.96875 L 1017.441406 808.96875 Z M 999.132812 816 L 1016.308594 816 L 1016.308594 816.703125 L 999.132812 816.703125 Z M 999.132812 814.359375 L 1016.308594 814.359375 L 1016.308594 815.296875 L 999.132812 815.296875 Z M 999.132812 812.71875 L 1016.308594 812.71875 L 1016.308594 813.65625 L 999.132812 813.65625 Z M 999.132812 811.078125 L 1016.308594 811.078125 L 1016.308594 812.015625 L 999.132812 812.015625 Z M 999.132812 809.4375 L 1016.308594 809.4375 L 1016.308594 810.371094 L 999.132812 810.371094 Z M 999.132812 808.265625 L 1016.308594 808.265625 L 1016.308594 808.96875 L 999.132812 808.96875 Z M 980.824219 816 L 998 816 L 998 816.703125 L 980.824219 816.703125 Z M 980.824219 814.359375 L 998 814.359375 L 998 815.296875 L 980.824219 815.296875 Z M 980.824219 812.71875 L 998 812.71875 L 998 813.65625 L 980.824219 813.65625 Z M 980.824219 811.078125 L 998 811.078125 L 998 812.015625 L 980.824219 812.015625 Z M 980.824219 809.4375 L 998 809.4375 L 998 810.371094 L 980.824219 810.371094 Z M 980.824219 808.265625 L 998 808.265625 L 998 808.96875 L 980.824219 808.96875 Z M 965.003906 816 L 979.695312 816 L 979.695312 816.703125 L 965.003906 816.703125 Z M 965.003906 814.359375 L 979.695312 814.359375 L 979.695312 815.296875 L 965.003906 815.296875 Z M 965.003906 812.71875 L 979.695312 812.71875 L 979.695312 813.65625 L 965.003906 813.65625 Z M 965.003906 811.078125 L 979.695312 811.078125 L 979.695312 812.015625 L 965.003906 812.015625 Z M 965.003906 809.4375 L 979.695312 809.4375 L 979.695312 810.371094 L 965.003906 810.371094 Z M 965.003906 808.265625 L 979.695312 808.265625 L 979.695312 808.96875 L 965.003906 808.96875 Z M 947.828125 727.15625 L 1019.699219 754.816406 L 1037.101562 754.816406 L 947.828125 720.359375 Z M 947.828125 733.015625 L 1005.679688 754.816406 L 947.828125 754.816406 Z M 947.828125 733.015625 "/>
<path style=" stroke:none;fill-rule:nonzero;fill:rgb(65.882353%,44.313725%,36.078431%);fill-opacity:1;" d="M 1473.71875 862.648438 L -32.089844 862.648438 L -32.089844 989.230469 L 1473.71875 989.230469 Z M 1473.71875 862.648438 "/>
<path style=" stroke:none;fill-rule:nonzero;fill:rgb(65.882353%,44.313725%,36.078431%);fill-opacity:1;" d="M 1142.191406 735.125 C 1141.28125 734.421875 1140.378906 733.953125 1139.019531 733.953125 C 1136.761719 733.953125 1134.730469 733.71875 1132.921875 732.78125 C 1132.019531 732.078125 1131.109375 731.375 1129.761719 731.140625 C 1130.890625 728.328125 1130.429688 725.046875 1128.628906 722.703125 C 1131.109375 717.308594 1129.078125 710.511719 1122.980469 708.871094 C 1120.261719 702.542969 1115.289062 696.445312 1109.191406 703.714844 C 1108.511719 704.652344 1107.828125 705.589844 1107.609375 706.761719 C 1105.570312 705.589844 1103.089844 704.886719 1100.828125 704.652344 C 1099.46875 704.417969 1098.339844 704.417969 1097.210938 704.886719 C 1096.078125 705.121094 1094.949219 705.589844 1093.820312 706.292969 C 1093.601562 703.480469 1093.371094 700.433594 1093.140625 697.621094 C 1093.371094 697.855469 1093.601562 698.089844 1094.050781 698.089844 C 1094.5 698.324219 1094.949219 698.558594 1095.398438 698.558594 C 1098.570312 703.480469 1104.898438 703.949219 1109.421875 700.199219 C 1109.871094 699.964844 1110.320312 699.496094 1110.550781 699.261719 C 1111.898438 700.199219 1113.480469 700.433594 1114.839844 699.730469 C 1118.460938 700.667969 1122.070312 700.667969 1125.238281 697.855469 C 1128.851562 694.570312 1129.761719 689.179688 1127.039062 685.195312 C 1123.648438 680.039062 1117.78125 680.976562 1113.480469 684.257812 C 1113.03125 683.554688 1112.351562 683.085938 1111.679688 682.617188 C 1110.550781 680.976562 1107.609375 680.039062 1105.800781 680.976562 C 1105.570312 680.976562 1105.570312 681.210938 1105.351562 681.210938 C 1104.898438 681.210938 1104.441406 681.210938 1103.988281 681.210938 C 1103.769531 681.210938 1103.539062 681.210938 1103.308594 681.210938 C 1102.179688 678.632812 1100.378906 676.289062 1097.441406 675.585938 C 1096.761719 675.351562 1095.859375 675.351562 1095.179688 675.351562 C 1094.269531 673.476562 1093.140625 671.835938 1091.109375 670.894531 C 1088.171875 669.253906 1085.238281 669.488281 1082.980469 671.132812 C 1081.171875 669.488281 1078.910156 668.785156 1075.96875 670.191406 C 1075.289062 670.425781 1074.609375 670.894531 1073.941406 671.363281 C 1073.941406 671.363281 1073.941406 671.363281 1073.710938 671.363281 C 1069.640625 668.785156 1063.308594 673.710938 1060.601562 676.757812 C 1058.339844 679.335938 1058.570312 682.148438 1059.699219 684.726562 C 1056.988281 687.070312 1054.949219 690.351562 1054.730469 694.570312 C 1054.5 699.261719 1057.210938 703.714844 1061.28125 705.589844 C 1060.601562 705.824219 1060.148438 706.292969 1059.699219 706.996094 C 1059.46875 707.464844 1059.019531 707.699219 1058.789062 707.933594 C 1057.210938 704.417969 1051.558594 703.714844 1049.300781 707.699219 C 1049.300781 707.699219 1049.300781 707.933594 1049.078125 707.933594 C 1046.820312 709.105469 1044.78125 711.449219 1043.199219 713.558594 C 1040.488281 717.546875 1045.460938 721.296875 1049.078125 720.59375 C 1050.210938 720.359375 1051.109375 719.890625 1052.011719 719.421875 C 1052.691406 719.65625 1053.371094 719.65625 1054.050781 719.65625 C 1054.5 719.890625 1054.730469 719.890625 1055.179688 720.121094 C 1059.25 721.296875 1062.640625 719.890625 1065.570312 717.308594 C 1068.960938 717.074219 1072.128906 714.261719 1072.808594 710.277344 C 1073.941406 710.042969 1075.070312 709.339844 1075.96875 708.636719 C 1077.78125 707.230469 1078.910156 705.589844 1079.808594 703.714844 C 1080.261719 703.714844 1080.941406 703.714844 1081.390625 703.714844 C 1082.070312 704.417969 1082.980469 704.886719 1083.878906 705.121094 C 1084.558594 709.339844 1085.910156 713.792969 1088.628906 717.074219 C 1088.851562 719.65625 1090.210938 721.765625 1092.011719 723.171875 C 1092.011719 737.703125 1091.789062 752.238281 1091.339844 766.773438 C 1089.300781 759.503906 1085.691406 752.238281 1083.648438 744.738281 C 1085.910156 743.332031 1087.71875 741.453125 1088.851562 739.109375 C 1089.980469 737.46875 1090.660156 735.359375 1091.109375 733.953125 C 1091.339844 733.015625 1091.339844 731.609375 1091.339844 730.4375 C 1091.789062 728.09375 1091.558594 725.28125 1090.210938 722.9375 C 1089.980469 722.46875 1089.761719 722.234375 1089.300781 722 C 1088.851562 720.828125 1088.171875 719.890625 1087.039062 718.949219 C 1082.070312 715.199219 1075.738281 719.421875 1073.941406 724.578125 C 1072.808594 724.34375 1071.679688 724.109375 1070.769531 724.34375 C 1070.089844 723.40625 1069.191406 722.703125 1067.828125 722.46875 C 1067.609375 722.46875 1067.609375 722.46875 1067.378906 722.46875 C 1066.929688 721.765625 1066.25 721.296875 1065.351562 721.0625 C 1061.28125 719.421875 1057.210938 722.9375 1057.210938 727.390625 C 1057.210938 727.625 1057.210938 727.859375 1057.210938 728.09375 C 1056.988281 728.5625 1056.761719 728.796875 1056.53125 729.265625 C 1055.398438 731.140625 1054.5 733.484375 1054.5 735.59375 C 1053.371094 735.359375 1052.238281 735.59375 1051.339844 736.0625 C 1050.210938 736.53125 1049.53125 737.703125 1048.851562 738.878906 C 1046.820312 738.878906 1045.011719 740.050781 1044.101562 742.15625 C 1043.648438 742.863281 1043.648438 743.566406 1043.429688 744.269531 C 1042.96875 744.738281 1042.519531 745.207031 1042.070312 745.675781 C 1037.101562 745.675781 1033.261719 749.425781 1033.03125 755.050781 C 1033.03125 756.457031 1034.160156 758.097656 1035.289062 758.566406 C 1040.488281 760.675781 1045.691406 759.035156 1049.078125 755.519531 C 1050.210938 754.816406 1050.878906 753.644531 1051.109375 752.472656 L 1051.109375 752.238281 C 1053.140625 753.175781 1055.628906 752.941406 1057.660156 752.472656 C 1056.761719 755.285156 1058.121094 758.800781 1061.28125 759.738281 C 1064.898438 760.910156 1067.609375 759.035156 1069.191406 755.988281 C 1070.320312 755.519531 1071.449219 754.816406 1072.351562 754.113281 C 1075.289062 756.222656 1078.910156 756.222656 1081.390625 758.800781 C 1082.300781 760.910156 1083.429688 762.785156 1084.558594 764.660156 C 1086.359375 767.710938 1087.269531 770.757812 1087.949219 774.273438 C 1085.691406 786.695312 1087.5 800.761719 1088.628906 813.65625 C 1087.949219 823.5 1087.5 833.113281 1087.71875 842.957031 C 1087.5 845.066406 1087.269531 846.941406 1087.269531 848.816406 C 1085.011719 849.753906 1083.648438 852.335938 1085.238281 854.679688 C 1085.691406 855.382812 1086.140625 856.085938 1086.371094 856.785156 C 1087.949219 859.367188 1091.339844 858.898438 1092.691406 856.320312 C 1094.730469 856.320312 1096.761719 856.085938 1098.570312 855.382812 C 1100.828125 854.441406 1101.28125 851.160156 1099.46875 849.753906 C 1099.699219 849.285156 1099.921875 848.582031 1099.921875 847.878906 C 1099.46875 829.59375 1097.660156 811.3125 1095.859375 793.027344 C 1095.859375 789.039062 1095.859375 785.054688 1095.859375 781.304688 C 1096.078125 780.367188 1096.078125 779.429688 1096.308594 778.726562 C 1097.210938 774.273438 1099.699219 770.757812 1101.511719 766.773438 C 1103.769531 762.316406 1105.351562 757.863281 1106.699219 753.175781 C 1106.929688 753.410156 1106.929688 753.644531 1107.160156 753.878906 C 1108.289062 755.285156 1109.640625 755.519531 1111.21875 755.753906 C 1113.480469 758.566406 1116.648438 760.441406 1120.71875 759.503906 C 1125.011719 762.316406 1131.109375 758.566406 1130.429688 753.410156 C 1131.558594 752.472656 1132.46875 751.769531 1133.371094 750.832031 C 1134.28125 751.535156 1135.410156 752.238281 1136.761719 752.472656 C 1137.890625 752.707031 1139.019531 752.472656 1139.929688 752.003906 C 1144.449219 752.003906 1149.421875 750.128906 1151 745.441406 C 1153.03125 737.234375 1147.378906 734.890625 1142.191406 735.125 Z M 1089.300781 710.511719 C 1088.851562 711.449219 1088.398438 712.621094 1088.171875 713.558594 C 1087.5 712.855469 1087.039062 711.917969 1086.589844 710.980469 C 1085.460938 708.871094 1084.78125 706.761719 1084.109375 704.417969 C 1086.589844 704.886719 1089.53125 703.714844 1090.890625 701.371094 C 1090.890625 701.136719 1091.109375 700.902344 1091.109375 700.902344 C 1091.109375 703.246094 1091.109375 705.589844 1091.109375 707.699219 C 1090.660156 708.402344 1089.980469 709.574219 1089.300781 710.511719 Z M 1082.980469 756.222656 C 1082.980469 755.988281 1082.980469 755.988281 1082.75 755.753906 C 1081.390625 752.941406 1078.460938 752.472656 1075.96875 751.535156 C 1075.289062 751.300781 1074.609375 751.066406 1073.941406 750.597656 C 1074.390625 750.128906 1074.609375 749.660156 1074.839844 748.957031 C 1075.070312 748.957031 1075.070312 748.957031 1075.289062 748.957031 C 1077.328125 748.488281 1078.679688 747.082031 1079.359375 745.441406 C 1079.589844 745.441406 1079.808594 745.441406 1080.039062 745.207031 C 1080.71875 748.957031 1081.851562 752.707031 1083.199219 756.457031 C 1083.199219 756.457031 1083.199219 756.222656 1082.980469 756.222656 Z M 1094.269531 723.875 C 1094.730469 724.109375 1095.398438 724.34375 1096.078125 724.34375 C 1097.210938 725.515625 1099.019531 726.21875 1101.050781 726.453125 C 1100.148438 728.09375 1099.25 729.734375 1098.339844 731.375 C 1097.210938 733.25 1095.859375 735.125 1094.949219 737.234375 C 1094.730469 732.78125 1094.5 728.328125 1094.269531 723.875 Z M 1096.308594 769.351562 C 1096.078125 769.820312 1095.859375 770.523438 1095.398438 770.992188 C 1095.398438 761.378906 1095.179688 751.535156 1094.949219 741.925781 C 1095.179688 741.222656 1095.628906 740.28125 1095.859375 739.578125 C 1095.628906 741.925781 1096.308594 744.269531 1097.890625 746.144531 C 1099.46875 747.785156 1101.511719 748.957031 1103.539062 749.660156 C 1103.988281 749.894531 1104.671875 750.128906 1105.121094 750.128906 C 1103.089844 756.691406 1099.921875 763.019531 1096.308594 769.351562 Z M 1109.640625 732.78125 C 1106.699219 730.671875 1103.089844 730.203125 1099.921875 732.78125 C 1100.601562 731.609375 1101.28125 730.4375 1101.960938 729.265625 C 1102.179688 729.265625 1102.410156 729.265625 1102.640625 729.03125 C 1102.859375 728.796875 1103.089844 728.328125 1103.308594 728.09375 C 1103.988281 728.796875 1104.898438 729.5 1105.800781 729.96875 C 1106.25 730.203125 1106.480469 730.203125 1106.929688 730.4375 C 1109.191406 732.546875 1111.898438 732.78125 1114.839844 732.078125 C 1115.289062 732.546875 1115.738281 733.015625 1116.199219 733.484375 C 1113.710938 732.78125 1111.679688 732.546875 1109.640625 732.78125 Z M 1109.640625 732.78125 "/>
<path style=" stroke:none;fill-rule:nonzero;fill:rgb(65.882353%,44.313725%,36.078431%);fill-opacity:1;" d="M 1367.5 751.769531 C 1368.859375 755.988281 1373.378906 757.628906 1377.449219 757.628906 C 1378.351562 758.097656 1379.261719 758.097656 1380.390625 757.863281 C 1381.738281 757.628906 1382.648438 757.160156 1383.550781 756.457031 C 1384.230469 757.394531 1385.128906 758.097656 1386.261719 758.800781 C 1385.578125 763.492188 1391.011719 766.773438 1394.851562 764.195312 C 1398.46875 764.898438 1401.398438 763.257812 1403.441406 760.675781 C 1404.789062 760.441406 1405.921875 760.210938 1407.050781 759.035156 C 1407.28125 758.800781 1407.511719 758.566406 1407.511719 758.332031 C 1408.640625 762.554688 1410.21875 766.539062 1412.03125 770.523438 C 1413.828125 774.039062 1415.871094 777.320312 1416.769531 781.304688 C 1417 782.007812 1417 782.945312 1417.21875 783.648438 C 1417.21875 787.164062 1417.21875 790.683594 1417.21875 794.199219 C 1415.640625 810.609375 1414.058594 827.015625 1413.609375 843.191406 C 1413.609375 843.894531 1413.828125 844.363281 1414.058594 844.832031 C 1412.480469 846.003906 1412.929688 849.050781 1414.738281 849.753906 C 1416.550781 850.460938 1418.351562 850.691406 1420.160156 850.691406 C 1421.289062 852.804688 1424.460938 853.273438 1425.808594 850.925781 C 1426.261719 850.222656 1426.488281 849.753906 1426.941406 849.050781 C 1428.300781 846.941406 1427.171875 844.597656 1425.128906 843.894531 C 1425.128906 842.253906 1425.128906 840.613281 1424.910156 838.738281 C 1424.910156 830.0625 1424.460938 821.390625 1424 812.71875 C 1425.128906 801.230469 1426.71875 788.808594 1424.679688 777.554688 C 1425.359375 774.507812 1426.261719 771.695312 1427.851562 769.117188 C 1428.980469 767.242188 1429.878906 765.601562 1430.558594 763.726562 C 1432.820312 761.382812 1435.980469 761.382812 1438.691406 759.503906 C 1439.601562 760.210938 1440.5 760.679688 1441.628906 761.144531 C 1442.988281 763.726562 1445.25 765.367188 1448.640625 764.429688 C 1451.578125 763.488281 1452.699219 760.441406 1451.800781 757.863281 C 1453.609375 758.332031 1455.871094 758.566406 1457.679688 757.628906 L 1457.679688 757.863281 C 1457.679688 759.035156 1458.351562 760.210938 1459.480469 760.675781 C 1462.421875 763.960938 1467.171875 765.132812 1471.691406 763.492188 C 1472.820312 763.023438 1473.71875 761.613281 1473.71875 760.210938 C 1473.5 755.285156 1470.109375 752.003906 1465.589844 752.003906 C 1465.128906 751.535156 1464.910156 751.066406 1464.460938 750.832031 C 1464.460938 750.363281 1464.230469 749.660156 1463.78125 748.957031 C 1462.871094 747.082031 1461.070312 746.144531 1459.480469 746.144531 C 1459.03125 745.207031 1458.351562 744.269531 1457.21875 743.566406 C 1456.320312 743.097656 1455.191406 742.863281 1454.289062 743.097656 C 1454.289062 741.222656 1453.378906 738.878906 1452.480469 737.46875 C 1452.25 737.234375 1452.03125 736.765625 1451.800781 736.53125 C 1451.800781 736.296875 1451.800781 736.0625 1451.800781 735.828125 C 1451.800781 732.078125 1448.191406 728.796875 1444.570312 730.203125 C 1443.890625 730.4375 1443.210938 730.90625 1442.761719 731.609375 C 1442.539062 731.609375 1442.539062 731.609375 1442.308594 731.609375 C 1441.179688 731.84375 1440.28125 732.546875 1439.820312 733.484375 C 1438.921875 733.484375 1437.789062 733.484375 1436.890625 733.71875 C 1435.300781 729.03125 1429.648438 725.28125 1425.359375 728.5625 C 1424.460938 729.265625 1423.78125 730.203125 1423.328125 731.375 C 1422.871094 731.609375 1422.648438 731.84375 1422.421875 732.3125 C 1421.289062 734.421875 1421.070312 736.765625 1421.519531 739.109375 C 1421.519531 740.28125 1421.519531 741.222656 1421.738281 742.160156 C 1421.96875 743.566406 1422.648438 745.441406 1423.78125 746.847656 C 1424.679688 748.957031 1426.488281 750.832031 1428.300781 752.003906 C 1426.488281 758.800781 1423.328125 765.132812 1421.289062 771.695312 C 1420.839844 758.800781 1420.609375 745.675781 1420.609375 732.78125 C 1422.199219 731.375 1423.550781 729.5 1423.550781 727.15625 C 1425.808594 724.34375 1427.171875 720.359375 1427.621094 716.605469 C 1428.519531 716.371094 1429.199219 715.902344 1429.878906 715.199219 C 1430.328125 715.199219 1430.78125 715.199219 1431.238281 715.199219 C 1432.140625 716.84375 1433.269531 718.484375 1434.851562 719.65625 C 1435.761719 720.359375 1436.660156 720.828125 1437.789062 721.0625 C 1438.46875 724.578125 1441.179688 727.15625 1444.121094 727.390625 C 1446.601562 729.734375 1449.769531 731.140625 1453.378906 729.96875 C 1453.828125 729.96875 1454.058594 729.734375 1454.511719 729.5 C 1455.191406 729.5 1455.640625 729.5 1456.320312 729.5 C 1457.21875 729.96875 1457.898438 730.203125 1458.808594 730.4375 C 1461.96875 731.140625 1466.261719 727.859375 1464 724.34375 C 1462.648438 722.234375 1460.839844 720.359375 1458.808594 719.1875 C 1458.808594 719.1875 1458.808594 718.953125 1458.578125 718.953125 C 1456.550781 715.199219 1451.578125 715.902344 1450.21875 719.1875 C 1449.988281 718.953125 1449.769531 718.484375 1449.539062 718.246094 C 1449.089844 717.777344 1448.640625 717.3125 1447.960938 717.074219 C 1451.578125 715.433594 1453.839844 711.449219 1453.609375 707.230469 C 1453.378906 703.714844 1451.578125 700.667969 1449.089844 698.558594 C 1449.988281 696.214844 1450.21875 693.867188 1448.191406 691.523438 C 1445.929688 688.710938 1440.28125 684.257812 1436.660156 686.601562 C 1436.210938 686.132812 1435.53125 685.898438 1434.851562 685.429688 C 1432.140625 684.257812 1430.109375 684.726562 1428.519531 686.367188 C 1426.488281 684.960938 1424 684.726562 1421.289062 686.132812 C 1419.480469 687.070312 1418.351562 688.476562 1417.679688 690.117188 C 1417 690.117188 1416.320312 690.117188 1415.640625 690.351562 C 1412.929688 691.054688 1411.351562 692.933594 1410.441406 695.277344 C 1410.21875 695.277344 1409.988281 695.277344 1409.769531 695.277344 C 1409.308594 695.277344 1408.859375 695.277344 1408.640625 695.277344 C 1408.410156 695.277344 1408.410156 695.039062 1408.179688 695.039062 C 1406.601562 694.339844 1404.121094 695.039062 1402.988281 696.683594 C 1402.308594 697.152344 1401.859375 697.621094 1401.398438 698.089844 C 1397.558594 695.039062 1392.359375 694.339844 1389.199219 699.027344 C 1386.710938 702.777344 1387.621094 707.699219 1390.78125 710.511719 C 1393.71875 713.089844 1396.878906 713.089844 1400.050781 712.152344 C 1401.398438 712.855469 1402.761719 712.621094 1403.890625 711.683594 C 1404.121094 711.917969 1404.570312 712.386719 1405.019531 712.621094 C 1409.089844 715.902344 1414.738281 715.433594 1417.449219 710.980469 C 1417.898438 710.980469 1418.351562 710.746094 1418.808594 710.511719 C 1419.03125 710.277344 1419.261719 710.277344 1419.480469 710.042969 C 1419.261719 712.621094 1419.03125 715.199219 1419.03125 717.78125 C 1418.128906 717.3125 1417 716.84375 1416.089844 716.605469 C 1415.191406 716.140625 1414.058594 716.140625 1412.929688 716.371094 C 1410.898438 716.605469 1408.859375 717.074219 1406.828125 718.246094 C 1406.601562 717.3125 1405.921875 716.371094 1405.25 715.433594 C 1399.820312 709.105469 1395.300781 714.496094 1393.039062 720.125 C 1387.390625 721.53125 1385.808594 727.625 1387.839844 732.546875 C 1386.261719 734.65625 1385.808594 737.703125 1386.710938 740.050781 C 1385.578125 740.28125 1384.679688 740.753906 1384 741.453125 C 1382.191406 742.160156 1380.390625 742.394531 1378.578125 742.394531 C 1377.449219 742.394531 1376.320312 742.863281 1375.640625 743.332031 C 1370.671875 744.269531 1365.699219 746.144531 1367.5 751.769531 Z M 1420.609375 719.890625 C 1420.609375 717.78125 1420.609375 715.902344 1420.609375 713.792969 C 1420.609375 714.027344 1420.839844 714.027344 1420.839844 714.261719 C 1422.199219 716.371094 1424.679688 717.3125 1426.941406 717.074219 C 1426.488281 719.1875 1425.808594 721.0625 1424.679688 722.9375 C 1424.230469 723.640625 1423.78125 724.34375 1423.328125 725.046875 C 1423.101562 724.109375 1422.871094 723.40625 1422.421875 722.46875 C 1421.96875 721.53125 1421.289062 720.59375 1420.609375 719.890625 Z M 1427.851562 763.257812 C 1429.199219 759.972656 1430.109375 756.691406 1430.78125 753.175781 C 1431.011719 753.175781 1431.238281 753.175781 1431.238281 753.410156 C 1431.910156 754.816406 1433.039062 755.988281 1434.851562 756.457031 C 1435.078125 756.457031 1435.078125 756.457031 1435.300781 756.457031 C 1435.53125 756.925781 1435.761719 757.394531 1436.210938 757.863281 C 1435.761719 758.097656 1435.078125 758.566406 1434.398438 758.800781 C 1431.910156 759.503906 1429.429688 759.972656 1428.300781 762.554688 C 1428.300781 762.785156 1428.300781 762.785156 1428.070312 763.023438 C 1428.070312 763.257812 1427.851562 763.257812 1427.851562 763.257812 Z M 1417.449219 746.144531 C 1416.550781 744.503906 1415.421875 742.628906 1414.511719 740.988281 C 1413.609375 739.578125 1412.929688 738.175781 1412.03125 736.765625 C 1413.828125 736.53125 1415.191406 735.828125 1416.320312 734.890625 C 1416.769531 734.890625 1417.449219 734.65625 1417.898438 734.421875 C 1417.898438 738.175781 1417.679688 742.160156 1417.449219 746.144531 Z M 1407.960938 757.628906 C 1408.410156 757.628906 1408.859375 757.394531 1409.539062 757.160156 C 1411.570312 756.691406 1413.378906 755.519531 1414.738281 754.113281 C 1416.089844 752.472656 1416.769531 750.363281 1416.550781 748.253906 C 1416.769531 748.957031 1417.21875 749.660156 1417.449219 750.363281 C 1417.21875 759.035156 1417 767.710938 1417 776.382812 C 1416.769531 775.914062 1416.550781 775.445312 1416.320312 774.976562 C 1412.929688 769.117188 1410.21875 763.492188 1407.960938 757.628906 Z M 1398.921875 742.628906 C 1399.371094 742.160156 1399.820312 741.691406 1400.050781 741.222656 C 1402.53125 741.691406 1405.25 741.691406 1407.050781 739.816406 C 1407.28125 739.816406 1407.730469 739.578125 1407.960938 739.347656 C 1408.859375 738.878906 1409.539062 738.40625 1410.21875 737.703125 C 1410.441406 737.9375 1410.671875 738.175781 1410.671875 738.640625 C 1410.898438 738.878906 1411.121094 738.878906 1411.351562 738.878906 C 1412.03125 740.050781 1412.480469 740.988281 1413.160156 741.925781 C 1410.21875 739.816406 1407.050781 740.28125 1404.339844 741.925781 C 1402.53125 741.925781 1400.730469 742.160156 1398.921875 742.628906 Z M 1398.921875 742.628906 "/>
<path style=" stroke:none;fill-rule:nonzero;fill:rgb(65.882353%,44.313725%,36.078431%);fill-opacity:1;" d="M 91.53125 750.597656 C 88.367188 745.910156 84.070312 742.863281 78.421875 743.097656 C 76.839844 743.097656 75.9375 744.503906 75.710938 745.910156 C 75.484375 745.910156 75.484375 745.910156 75.257812 745.910156 C 75.03125 745.675781 75.03125 745.441406 74.804688 745.207031 C 76.160156 743.800781 76.839844 741.925781 76.160156 740.28125 C 75.03125 736.765625 78.195312 733.953125 74.582031 730.671875 C 74.582031 726.453125 71.417969 723.171875 68.703125 719.65625 C 67.347656 718.015625 64.183594 717.546875 62.375 718.71875 C 61.925781 717.308594 61.019531 715.902344 59.664062 714.496094 C 56.953125 711.449219 54.917969 706.058594 50.851562 704.886719 C 50.851562 704.652344 50.851562 704.652344 51.078125 704.417969 C 52.660156 703.714844 54.015625 702.308594 54.242188 700.199219 C 54.917969 696.683594 52.207031 692.929688 48.589844 693.867188 C 48.136719 691.523438 47.007812 689.414062 45.425781 687.773438 L 45.652344 687.773438 C 48.816406 687.304688 48.136719 682.851562 45.652344 681.914062 C 46.78125 682.382812 44.976562 678.867188 44.75 678.632812 C 43.84375 677.695312 42.714844 676.992188 41.8125 676.523438 C 40.679688 676.054688 39.550781 675.820312 38.421875 675.820312 C 37.742188 674.648438 36.839844 673.476562 35.484375 673.007812 C 33.449219 672.304688 31.414062 672.769531 29.832031 673.945312 C 27.574219 674.410156 26.21875 676.289062 26.21875 678.164062 C 25.085938 678.632812 23.957031 679.101562 23.957031 679.101562 C 22.148438 679.804688 21.019531 681.445312 21.019531 683.085938 C 19.4375 682.851562 18.082031 682.382812 16.5 681.679688 C 14.238281 680.507812 10.398438 682.382812 11.527344 685.664062 C 12.65625 688.945312 14.691406 690.117188 17.628906 691.757812 C 19.664062 692.695312 21.695312 693.632812 23.957031 694.101562 C 25.992188 694.570312 28.703125 694.339844 30.738281 695.039062 C 31.414062 695.273438 32.09375 695.742188 32.996094 696.214844 C 33.675781 699.027344 35.03125 701.371094 37.515625 703.011719 C 39.550781 704.417969 41.585938 704.652344 43.617188 704.183594 C 43.617188 704.417969 43.84375 704.652344 43.84375 704.886719 C 43.84375 705.121094 43.84375 705.355469 44.070312 705.824219 C 43.167969 705.824219 42.261719 706.058594 41.132812 706.292969 C 40.230469 706.527344 39.324219 707.464844 38.421875 707.933594 C 38.421875 707.699219 38.421875 707.464844 38.421875 707.464844 C 37.96875 705.824219 36.839844 703.714844 35.707031 702.542969 C 34.804688 701.839844 33.902344 701.136719 32.996094 700.667969 C 30.058594 696.214844 24.859375 694.570312 20.566406 696.683594 C 19.890625 696.683594 18.984375 696.914062 18.308594 697.386719 C 17.628906 697.617188 16.949219 698.089844 16.5 698.558594 C 10.847656 696.683594 1.132812 696.683594 -1.355469 704.183594 C -2.484375 707.464844 -1.582031 710.042969 0.226562 711.683594 C 0 713.089844 0 714.730469 0.453125 716.371094 C 0.226562 717.074219 0 717.777344 0 718.480469 C -2.710938 718.246094 -4.96875 719.421875 -5.648438 723.171875 C -5.875 724.578125 -5.875 725.75 -5.648438 726.921875 C -5.875 727.15625 -6.328125 727.625 -6.550781 728.09375 L -6.777344 728.09375 C -9.714844 726.453125 -13.105469 726.453125 -16.042969 728.328125 C -17.398438 729.265625 -18.53125 730.203125 -19.660156 731.375 C -25.308594 732.078125 -29.378906 737.9375 -31.1875 743.800781 C -33.21875 750.597656 -27.117188 754.816406 -21.242188 754.113281 C -17.398438 753.644531 -13.785156 752.238281 -10.847656 749.425781 C -10.167969 748.722656 -9.492188 748.019531 -8.8125 747.316406 C -7.230469 747.785156 -5.648438 747.785156 -3.839844 747.550781 C -4.96875 748.488281 -5.875 749.894531 -6.550781 751.535156 C -7.230469 753.410156 -7.003906 756.222656 -4.519531 756.691406 C -0.675781 757.394531 2.714844 756.691406 5.425781 754.582031 C 8.589844 753.878906 9.71875 749.894531 10.847656 746.378906 C 11.074219 746.613281 11.300781 746.847656 11.527344 747.082031 C 12.429688 748.019531 13.5625 748.253906 14.691406 748.019531 C 15.371094 760.675781 17.855469 772.632812 20.792969 785.761719 C 20.792969 785.992188 21.019531 785.992188 21.019531 786.226562 C 21.019531 793.261719 21.019531 800.058594 21.019531 807.089844 C 21.246094 820.21875 21.472656 833.347656 22.148438 846.472656 C 22.601562 853.972656 22.828125 861.710938 27.121094 867.570312 C 27.121094 868.039062 27.121094 868.507812 27.121094 868.976562 C 27.347656 871.789062 31.867188 872.960938 32.320312 869.679688 C 35.484375 846.238281 35.257812 821.859375 36.839844 798.183594 C 37.066406 796.074219 37.066406 793.730469 37.289062 791.621094 C 37.96875 786.226562 38.648438 781.773438 41.132812 776.617188 C 42.714844 773.335938 44.070312 770.757812 44.976562 767.242188 C 46.78125 760.675781 48.136719 753.878906 49.269531 747.082031 C 51.527344 747.316406 53.5625 747.082031 55.597656 746.144531 C 55.824219 746.144531 55.824219 746.144531 56.046875 746.378906 C 55.144531 747.550781 54.464844 748.722656 53.789062 750.363281 C 53.109375 752.472656 54.691406 755.050781 56.5 755.519531 C 59.210938 756.222656 61.472656 755.988281 64.183594 755.988281 C 64.636719 755.988281 65.3125 755.988281 65.765625 756.222656 C 65.765625 756.691406 65.992188 756.925781 65.992188 757.394531 C 66.445312 758.800781 68.027344 759.738281 69.382812 759.035156 C 72.546875 760.675781 76.160156 760.441406 78.648438 757.394531 C 82.265625 757.160156 86.105469 756.691406 89.496094 755.988281 C 91.53125 754.816406 92.660156 752.238281 91.53125 750.597656 Z M 7.007812 745.675781 C 6.554688 745.441406 6.328125 745.207031 5.652344 744.972656 C 5.878906 744.738281 5.878906 744.503906 5.878906 744.269531 C 6.554688 744.035156 7.007812 743.566406 7.460938 743.097656 C 7.683594 743.097656 7.683594 743.097656 7.910156 743.097656 C 7.683594 743.800781 7.460938 744.738281 7.007812 745.675781 Z M 21.246094 778.257812 C 19.210938 767.710938 17.175781 757.863281 16.273438 747.316406 C 16.726562 747.082031 17.175781 746.613281 17.402344 745.910156 C 18.308594 743.800781 18.53125 743.328125 18.984375 741.222656 C 19.210938 739.578125 18.757812 738.171875 17.855469 737.46875 C 19.664062 736.765625 21.019531 735.59375 22.375 734.1875 C 21.695312 748.722656 21.246094 763.488281 21.246094 778.257812 Z M 37.742188 734.65625 C 37.515625 734.65625 37.066406 734.65625 36.386719 734.65625 C 35.484375 733.015625 33.222656 732.078125 31.414062 733.015625 C 28.703125 734.421875 28.476562 734.65625 26.21875 736.765625 C 23.957031 738.878906 25.992188 742.394531 28.476562 742.628906 C 29.382812 743.800781 31.1875 744.503906 32.542969 744.035156 C 34.351562 743.566406 35.933594 743.566406 37.289062 743.566406 C 37.515625 743.800781 37.515625 743.800781 37.515625 744.035156 C 35.257812 760.441406 32.996094 776.851562 31.640625 793.261719 C 30.511719 805.683594 29.15625 818.34375 28.25 831.003906 C 25.3125 797.949219 24.859375 764.429688 24.183594 731.609375 C 24.410156 731.140625 24.636719 730.4375 24.859375 729.96875 C 28.023438 730.671875 31.414062 730.671875 34.804688 729.734375 C 35.257812 731.609375 36.386719 733.484375 37.96875 734.65625 C 37.96875 734.421875 37.96875 734.421875 37.742188 734.65625 Z M 41.132812 771.460938 C 40.230469 773.570312 39.097656 775.445312 38.421875 777.085938 C 39.097656 766.539062 39.777344 756.222656 40.453125 745.675781 C 42.261719 746.378906 44.070312 745.910156 45.878906 745.207031 C 46.78125 745.675781 47.460938 745.910156 48.363281 746.144531 C 46.554688 755.050781 44.75 763.960938 41.132812 771.460938 Z M 81.132812 751.066406 C 81.132812 750.597656 81.132812 749.894531 80.90625 749.425781 C 81.8125 749.660156 82.714844 750.128906 83.394531 750.597656 C 82.714844 750.832031 82.039062 751.066406 81.132812 751.066406 Z M 81.132812 751.066406 "/>
<path style=" stroke:none;fill-rule:nonzero;fill:rgb(65.882353%,44.313725%,36.078431%);fill-opacity:1;" d="M 721.15625 741.925781 C 717.992188 737.234375 713.695312 734.1875 708.046875 734.421875 C 706.464844 734.421875 705.5625 735.828125 705.335938 737.234375 C 705.109375 737.234375 705.109375 737.234375 704.882812 737.234375 C 704.65625 737 704.65625 736.765625 704.429688 736.53125 C 705.785156 735.125 706.464844 733.25 705.785156 731.609375 C 704.65625 728.09375 707.820312 725.28125 704.203125 722 C 704.203125 717.777344 701.042969 714.496094 698.328125 710.980469 C 696.972656 709.339844 693.808594 708.871094 692.003906 710.042969 C 691.550781 708.636719 690.644531 707.230469 689.289062 705.824219 C 686.578125 702.777344 684.542969 697.386719 680.476562 696.214844 C 680.476562 695.980469 680.476562 695.980469 680.703125 695.742188 C 682.285156 695.039062 683.640625 693.636719 683.867188 691.523438 C 684.542969 688.007812 681.832031 684.257812 678.214844 685.195312 C 677.765625 682.851562 676.632812 680.742188 675.050781 679.101562 L 675.277344 679.101562 C 678.441406 678.632812 677.765625 674.179688 675.277344 673.238281 C 676.40625 673.710938 674.601562 670.191406 674.375 669.960938 C 673.46875 669.019531 672.339844 668.316406 671.4375 667.847656 C 670.304688 667.378906 669.175781 667.144531 668.046875 667.144531 C 667.367188 665.972656 666.464844 664.800781 665.109375 664.332031 C 663.074219 663.628906 661.039062 664.097656 659.457031 665.269531 C 657.199219 665.738281 655.84375 667.613281 655.84375 669.488281 C 654.710938 669.960938 653.582031 670.425781 653.582031 670.425781 C 651.773438 671.132812 650.644531 672.773438 650.644531 674.414062 C 649.0625 674.179688 647.707031 673.710938 646.125 673.007812 C 643.863281 671.835938 640.023438 673.710938 641.152344 676.992188 C 642.28125 680.273438 644.316406 681.445312 647.253906 683.085938 C 649.289062 684.023438 651.320312 684.960938 653.582031 685.429688 C 655.617188 685.898438 658.328125 685.664062 660.363281 686.367188 C 661.039062 686.601562 661.71875 687.070312 662.621094 687.539062 C 663.300781 690.351562 664.65625 692.695312 667.140625 694.339844 C 669.175781 695.742188 671.210938 695.980469 673.242188 695.511719 C 673.242188 695.742188 673.46875 695.980469 673.46875 696.214844 C 673.46875 696.449219 673.46875 696.683594 673.695312 697.152344 C 672.792969 697.152344 671.886719 697.386719 670.757812 697.621094 C 669.855469 697.855469 668.949219 698.792969 668.046875 699.261719 C 668.046875 699.027344 668.046875 698.792969 668.046875 698.792969 C 667.59375 697.152344 666.464844 695.039062 665.335938 693.867188 C 664.429688 693.164062 663.527344 692.464844 662.621094 691.992188 C 659.683594 687.539062 654.484375 685.898438 650.191406 688.007812 C 649.515625 688.007812 648.609375 688.242188 647.933594 688.710938 C 647.253906 688.945312 646.574219 689.414062 646.125 689.882812 C 640.476562 688.007812 630.757812 688.007812 628.269531 695.511719 C 627.140625 698.792969 628.046875 701.371094 629.851562 703.011719 C 629.628906 704.417969 629.628906 706.058594 630.078125 707.699219 C 629.851562 708.402344 629.628906 709.105469 629.628906 709.808594 C 626.914062 709.574219 624.65625 710.746094 623.976562 714.496094 C 623.75 715.902344 623.75 717.074219 623.976562 718.246094 C 623.75 718.484375 623.300781 718.949219 623.074219 719.421875 L 622.847656 719.421875 C 619.910156 717.777344 616.519531 717.777344 613.582031 719.65625 C 612.226562 720.59375 611.09375 721.53125 609.964844 722.703125 C 604.316406 723.40625 600.246094 729.265625 598.4375 735.125 C 596.40625 741.925781 602.507812 746.144531 608.382812 745.441406 C 612.226562 744.972656 615.839844 743.566406 618.777344 740.753906 C 619.457031 740.050781 620.136719 739.347656 620.8125 738.640625 C 622.394531 739.109375 623.976562 739.109375 625.785156 738.878906 C 624.65625 739.8125 623.75 741.222656 623.074219 742.863281 C 622.394531 744.738281 622.621094 747.550781 625.105469 748.019531 C 628.949219 748.722656 632.339844 748.019531 635.050781 745.910156 C 638.214844 745.207031 639.34375 741.222656 640.476562 737.703125 C 640.699219 737.9375 640.925781 738.171875 641.152344 738.40625 C 642.054688 739.347656 643.1875 739.578125 644.316406 739.347656 C 644.992188 752.003906 647.480469 763.960938 650.417969 777.085938 C 650.417969 777.320312 650.644531 777.320312 650.644531 777.554688 C 650.644531 784.589844 650.644531 791.386719 650.644531 798.417969 C 650.871094 811.546875 651.097656 824.671875 651.773438 837.800781 C 652.226562 845.300781 652.453125 853.035156 656.746094 858.898438 C 656.746094 859.367188 656.746094 859.835938 656.746094 860.304688 C 656.972656 863.117188 661.492188 864.289062 661.945312 861.007812 C 665.109375 837.566406 664.882812 813.1875 666.464844 789.511719 C 666.691406 787.402344 666.691406 785.058594 666.914062 782.945312 C 667.59375 777.554688 668.273438 773.101562 670.757812 767.945312 C 672.339844 764.660156 673.695312 762.085938 674.601562 758.566406 C 676.40625 752.003906 677.765625 745.207031 678.894531 738.40625 C 681.152344 738.640625 683.1875 738.40625 685.222656 737.46875 C 685.449219 737.46875 685.449219 737.46875 685.675781 737.703125 C 684.769531 738.878906 684.09375 740.050781 683.414062 741.691406 C 682.734375 743.800781 684.316406 746.378906 686.125 746.847656 C 688.839844 747.550781 691.097656 747.316406 693.808594 747.316406 C 694.261719 747.316406 694.941406 747.316406 695.390625 747.550781 C 695.390625 748.019531 695.617188 748.253906 695.617188 748.722656 C 696.070312 750.128906 697.652344 751.066406 699.007812 750.363281 C 702.171875 752.003906 705.785156 751.769531 708.273438 748.722656 C 711.890625 748.488281 715.730469 748.019531 719.121094 747.316406 C 721.15625 745.910156 722.285156 743.566406 721.15625 741.925781 Z M 636.632812 736.765625 C 636.179688 736.53125 635.953125 736.296875 635.277344 736.0625 C 635.503906 735.828125 635.503906 735.59375 635.503906 735.359375 C 636.179688 735.125 636.632812 734.65625 637.085938 734.1875 C 637.3125 734.1875 637.3125 734.1875 637.535156 734.1875 C 637.3125 735.125 637.085938 736.0625 636.632812 736.765625 Z M 650.871094 769.351562 C 648.835938 758.800781 646.800781 748.957031 645.898438 738.40625 C 646.351562 738.171875 646.800781 737.703125 647.027344 737 C 647.933594 734.890625 648.15625 734.421875 648.609375 732.3125 C 648.835938 730.671875 648.382812 729.265625 647.480469 728.5625 C 649.289062 727.859375 650.644531 726.6875 652 725.28125 C 651.320312 740.050781 650.871094 754.816406 650.871094 769.351562 Z M 667.367188 725.75 C 667.140625 725.75 666.691406 725.75 666.011719 725.75 C 665.109375 724.109375 662.847656 723.171875 661.039062 724.109375 C 658.328125 725.515625 658.101562 725.75 655.84375 727.859375 C 653.582031 729.96875 655.617188 733.484375 658.101562 733.71875 C 659.007812 734.890625 660.8125 735.59375 662.171875 735.125 C 663.976562 734.65625 665.558594 734.65625 666.914062 734.65625 C 667.140625 734.890625 667.140625 734.890625 667.140625 735.125 C 664.882812 751.535156 662.621094 767.945312 661.265625 784.351562 C 660.136719 796.777344 658.78125 809.4375 657.875 822.09375 C 654.9375 789.042969 654.484375 755.519531 653.808594 722.703125 C 654.035156 722.234375 654.261719 721.53125 654.484375 721.0625 C 657.648438 721.765625 661.039062 721.765625 664.429688 720.828125 C 664.882812 722.703125 666.011719 724.578125 667.59375 725.75 C 667.59375 725.515625 667.59375 725.75 667.367188 725.75 Z M 670.757812 762.785156 C 669.855469 764.898438 668.722656 766.773438 668.046875 768.414062 C 668.722656 757.863281 669.402344 747.550781 670.078125 737 C 671.886719 737.703125 673.695312 737.234375 675.503906 736.53125 C 676.40625 737 677.085938 737.234375 677.988281 737.46875 C 676.183594 746.378906 674.375 755.285156 670.757812 762.785156 Z M 710.757812 742.394531 C 710.757812 741.925781 710.757812 741.222656 710.53125 740.753906 C 711.4375 740.984375 712.339844 741.453125 713.019531 741.925781 C 712.339844 742.160156 711.664062 742.160156 710.757812 742.394531 Z M 710.757812 742.394531 "/>
<path style=" stroke:none;fill-rule:nonzero;fill:rgb(65.882353%,44.313725%,36.078431%);fill-opacity:1;" d="M 663.300781 858.898438 C 661.945312 858.664062 660.589844 858.664062 659.457031 858.898438 C 659.230469 856.554688 658.101562 854.210938 656.066406 852.804688 C 656.066406 847.878906 651.324219 844.832031 647.253906 845.535156 C 646.578125 843.660156 645.445312 842.019531 643.414062 841.316406 C 640.476562 840.144531 635.953125 841.550781 633.46875 843.425781 C 632.339844 844.363281 631.433594 845.769531 630.984375 847.410156 C 629.628906 846.941406 628.046875 846.707031 626.464844 847.175781 C 625.558594 847.410156 624.65625 847.878906 623.976562 848.347656 C 621.71875 846.941406 619.003906 846.941406 616.746094 849.519531 C 615.390625 851.160156 614.710938 854.441406 615.164062 857.023438 C 613.808594 857.257812 612.226562 857.726562 610.867188 858.429688 C 606.800781 860.304688 608.382812 866.632812 612 867.804688 C 612.902344 868.039062 613.808594 868.273438 614.710938 868.507812 C 614.9375 869.914062 616.292969 871.320312 617.875 871.085938 C 618.554688 871.085938 620.8125 870.617188 622.847656 870.382812 C 623.75 870.617188 624.429688 870.617188 625.332031 870.382812 C 625.785156 871.320312 626.914062 872.257812 628.046875 872.257812 C 629.402344 872.023438 630.304688 871.789062 630.984375 870.851562 C 631.210938 870.851562 631.433594 870.617188 631.433594 870.617188 C 633.015625 871.789062 634.597656 872.492188 636.40625 872.023438 C 637.535156 872.726562 638.894531 873.664062 639.796875 873.664062 C 642.058594 873.664062 643.414062 872.257812 645.445312 872.257812 C 648.160156 872.257812 650.871094 872.492188 653.582031 872.257812 C 654.035156 872.257812 654.714844 872.492188 655.164062 872.257812 C 655.390625 872.257812 655.617188 872.257812 655.617188 872.023438 C 658.101562 871.789062 660.363281 871.085938 662.394531 869.679688 C 666.691406 867.101562 668.722656 860.539062 663.300781 858.898438 Z M 663.300781 858.898438 "/>
<path style=" stroke:none;fill-rule:nonzero;fill:rgb(65.882353%,44.313725%,36.078431%);fill-opacity:1;" d="M 59.664062 850.457031 C 58.082031 849.988281 56.726562 850.222656 55.144531 850.457031 C 54.917969 847.644531 53.5625 845.066406 51.300781 843.425781 C 51.300781 837.800781 45.878906 834.050781 41.132812 834.988281 C 40.230469 832.878906 39.097656 831.003906 36.613281 830.0625 C 33.222656 828.890625 28.023438 830.300781 25.3125 832.40625 C 23.957031 833.578125 22.828125 835.222656 22.375 837.097656 C 20.792969 836.394531 18.984375 836.394531 17.175781 836.863281 C 16.046875 837.097656 15.144531 837.566406 14.238281 838.269531 C 11.527344 836.628906 8.589844 836.628906 6.101562 839.675781 C 4.519531 841.550781 3.84375 845.300781 4.296875 848.347656 C 2.714844 848.816406 0.90625 849.285156 -0.675781 849.988281 C -5.421875 852.097656 -3.613281 859.367188 0.679688 860.773438 C 1.582031 861.007812 2.714844 861.476562 3.84375 861.710938 C 4.070312 863.351562 5.652344 864.992188 7.460938 864.523438 C 8.136719 864.289062 10.847656 863.820312 13.335938 863.585938 C 14.238281 863.820312 15.371094 863.820312 16.273438 863.585938 C 16.953125 864.757812 18.082031 865.695312 19.4375 865.695312 C 21.019531 865.460938 21.921875 865.226562 22.828125 864.054688 C 23.054688 864.054688 23.277344 863.820312 23.503906 863.820312 C 25.3125 865.226562 27.121094 865.929688 29.15625 865.226562 C 30.511719 865.929688 32.09375 867.101562 33.222656 867.101562 C 35.710938 867.335938 37.289062 865.460938 39.777344 865.460938 C 42.714844 865.460938 46.105469 865.695312 49.269531 865.460938 C 49.945312 865.695312 50.398438 865.695312 51.078125 865.460938 C 51.300781 865.460938 51.527344 865.460938 51.753906 865.226562 C 54.464844 864.992188 57.179688 864.289062 59.664062 862.414062 C 63.734375 859.835938 66.21875 852.097656 59.664062 850.457031 Z M 59.664062 850.457031 "/>
<path style=" stroke:none;fill-rule:nonzero;fill:rgb(65.882353%,44.313725%,36.078431%);fill-opacity:1;" d="M 1136.761719 845.066406 C 1134.050781 845.300781 1131.339844 845.535156 1128.851562 846.238281 C 1127.71875 844.832031 1126.371094 843.660156 1124.558594 843.191406 C 1123.429688 842.957031 1122.519531 842.957031 1121.390625 842.957031 C 1120.941406 842.253906 1120.488281 841.785156 1119.808594 841.316406 C 1120.71875 837.332031 1120.039062 833.582031 1116.648438 830.769531 C 1113.261719 827.953125 1108.511719 827.953125 1104.898438 830.0625 C 1103.539062 829.128906 1101.960938 828.65625 1099.921875 828.65625 C 1096.761719 828.65625 1093.820312 830.300781 1092.238281 833.113281 C 1091.789062 833.816406 1091.558594 834.519531 1091.339844 835.222656 C 1090.429688 835.222656 1089.300781 835.457031 1088.628906 835.925781 C 1088.171875 835.925781 1087.71875 835.691406 1087.269531 835.691406 C 1080.261719 834.753906 1075.289062 839.675781 1074.160156 845.535156 C 1073.941406 845.535156 1073.710938 845.769531 1073.480469 845.769531 C 1071 844.363281 1068.058594 844.597656 1066.03125 846.941406 C 1063.089844 850.222656 1061.960938 854.679688 1064.21875 858.898438 C 1064.671875 859.835938 1065.570312 860.773438 1066.25 861.242188 C 1067.378906 862.179688 1068.511719 862.882812 1069.871094 863.117188 C 1071.898438 867.804688 1078.230469 869.210938 1081.390625 865.695312 C 1091.789062 866.632812 1102.410156 866.632812 1112.808594 865.226562 C 1120.039062 868.976562 1129.761719 865.695312 1136.539062 862.414062 C 1138.570312 861.476562 1139.25 859.601562 1139.019531 857.960938 C 1140.148438 856.320312 1141.058594 854.445312 1141.730469 852.097656 C 1142.410156 848.582031 1139.929688 844.832031 1136.761719 845.066406 Z M 1136.761719 845.066406 "/>
<path style=" stroke:none;fill-rule:nonzero;fill:rgb(65.882353%,44.313725%,36.078431%);fill-opacity:1;" d="M 1441.179688 845.769531 C 1438.46875 846.003906 1435.761719 846.238281 1433.269531 846.941406 C 1432.140625 845.535156 1430.78125 844.363281 1428.980469 843.894531 C 1427.851562 843.660156 1426.941406 843.660156 1425.808594 843.660156 C 1425.359375 842.957031 1424.910156 842.488281 1424.230469 842.019531 C 1425.128906 838.035156 1424.460938 834.285156 1421.070312 831.472656 C 1417.679688 828.65625 1412.929688 828.65625 1409.308594 830.769531 C 1407.960938 829.828125 1406.378906 829.359375 1404.339844 829.359375 C 1401.179688 829.359375 1398.238281 831.003906 1396.660156 833.816406 C 1396.210938 834.519531 1395.980469 835.222656 1395.75 835.925781 C 1394.851562 835.925781 1393.71875 836.160156 1393.039062 836.628906 C 1392.589844 836.628906 1392.140625 836.394531 1391.691406 836.394531 C 1384.679688 835.457031 1379.710938 840.378906 1378.578125 846.238281 C 1378.351562 846.238281 1378.128906 846.472656 1377.898438 846.472656 C 1375.410156 845.066406 1372.480469 845.300781 1370.441406 847.644531 C 1367.5 850.925781 1366.371094 855.382812 1368.628906 859.601562 C 1369.089844 860.539062 1369.988281 861.476562 1370.671875 861.945312 C 1371.800781 862.882812 1372.929688 863.585938 1374.28125 863.820312 C 1376.320312 868.507812 1382.648438 869.914062 1385.808594 866.398438 C 1396.210938 867.335938 1406.828125 867.335938 1417.21875 865.929688 C 1424.460938 869.679688 1434.171875 866.398438 1440.949219 863.117188 C 1442.988281 862.179688 1443.671875 860.304688 1443.441406 858.664062 C 1444.570312 857.023438 1445.46875 855.148438 1446.148438 852.804688 C 1446.828125 849.285156 1444.339844 845.535156 1441.179688 845.769531 Z M 1441.179688 845.769531 "/>
</g>
</svg>
