<svg id="Layer_1" data-name="Layer 1" xmlns="http://www.w3.org/2000/svg" xmlns:xlink="http://www.w3.org/1999/xlink" viewBox="0 0 626 531.85"><defs><style>.cls-1{fill:#be9d62;}.cls-10,.cls-2,.cls-9{fill:#e7c27a;}.cls-3{fill:#d6b47c;}.cls-4{fill:#e6cc9a;}.cls-5{fill:url(#linear-gradient);}.cls-6{fill:url(#linear-gradient-2);}.cls-7{fill:url(#linear-gradient-3);}.cls-10,.cls-11,.cls-8,.cls-9{isolation:isolate;}.cls-10,.cls-11,.cls-9{font-size:103.15px;font-family:Montserrat-Bold, Montserrat;font-weight:700;}.cls-10{letter-spacing:-0.01em;}.cls-11{fill:#75323c;}</style><linearGradient id="linear-gradient" x1="213.68" y1="211.28" x2="408.35" y2="211.28" gradientTransform="matrix(1, 0, 0, -1, 0, 528)" gradientUnits="userSpaceOnUse"><stop offset="0" stop-color="#7c555d"/><stop offset="0.28" stop-color="#e7c27a"/><stop offset="0.67" stop-color="#e6cc9a"/><stop offset="1" stop-color="#ffd96c"/></linearGradient><linearGradient id="linear-gradient-2" x1="179.4" y1="370.83" x2="391.34" y2="370.83" gradientTransform="matrix(1, 0, 0, -1, 0, 528)" gradientUnits="userSpaceOnUse"><stop offset="0" stop-color="#75323c"/><stop offset="0.03" stop-color="#824243"/><stop offset="0.28" stop-color="#e7c27a"/><stop offset="0.67" stop-color="#e6cc9a"/><stop offset="1" stop-color="#ffd96c"/></linearGradient><linearGradient id="linear-gradient-3" x1="132.43" y1="345.34" x2="489.56" y2="345.34" xlink:href="#linear-gradient-2"/></defs><g id="Layer_2" data-name="Layer 2"><g id="Layer_1-2" data-name="Layer 1-2"><path class="cls-1" d="M311,90.23l-1.24,4.21V216.92l1.24,1.23,56.85-33.6Z" transform="translate(2 -4.08)"/><path class="cls-2" d="M311,90.23l-56.85,94.32L311,218.15Z" transform="translate(2 -4.08)"/><path class="cls-1" d="M311,228.92l-.69.85V273.4l.69,2,56.89-80.11Z" transform="translate(2 -4.08)"/><path class="cls-2" d="M311,275.44V228.92l-56.85-33.58Z" transform="translate(2 -4.08)"/><path class="cls-3" d="M311,218.15l56.85-33.6L311,158.71Z" transform="translate(2 -4.08)"/><path class="cls-4" d="M254.14,184.55,311,218.15V158.71Z" transform="translate(2 -4.08)"/><path class="cls-5" d="M408.35,303.41l-7.87-7.85a143.59,143.59,0,0,1-178.94,0l-7.86,7.85A154.66,154.66,0,0,0,408.35,303.41Z" transform="translate(2 -4.08)"/><path class="cls-6" d="M206.88,263.28l7.85-7.85A120.5,120.5,0,0,1,383.48,86.66l7.9-7.86a131.46,131.46,0,0,0-184.5,184.48Z" transform="translate(2 -4.08)"/><path class="cls-7" d="M311,4.08A177.92,177.92,0,0,0,188.78,52.62q-4,3.8-7.8,7.81l7.8,7.8,8.86,8.87a154.73,154.73,0,0,0,7.26,218.69l.41.38,7.79-7.81h0l8.72-8.72A131.52,131.52,0,0,0,407.69,93.78h0l8.86-8.87,7.81-7.81q-3.74-4-7.74-7.72a154.7,154.7,0,0,0-211.09,0l-8.87-8.87A166.84,166.84,0,0,1,311,15.12c92.38,0,167.54,75.16,167.54,167.54a166.86,166.86,0,0,1-45.31,114.41l-8.73-8.73a154.72,154.72,0,0,0,7.08-203l-7.84,7.86a143.71,143.71,0,0,1-14.8,195.17l16.52,16.53a166.83,166.83,0,0,1-114.41,45.31c-92.38,0-167.54-75.15-167.54-167.53a166.76,166.76,0,0,1,38-106.17l-7.83-7.84a177.73,177.73,0,0,0-41.2,114c0,98.46,80.1,178.58,178.57,178.58a177.91,177.91,0,0,0,122.22-48.55c2.69-2.52,5.29-5.13,7.8-7.8a177.88,177.88,0,0,0,48.54-122.22C489.58,84.19,409.47,4.08,311,4.08Zm0,34.66a143.47,143.47,0,0,1,97.74,38.37L399.87,86l-7.8,7.8q4.1,3.7,7.81,7.8A120.49,120.49,0,0,1,229.64,271.83c-2.71-2.49-5.32-5.06-7.8-7.82l-7.8,7.81-8.73,8.73A143.5,143.5,0,0,1,167,182.8C167,103.36,231.6,38.74,311,38.74Z" transform="translate(2 -4.08)"/><g class="cls-8"><text class="cls-9" transform="translate(0 505.13)">et</text><text class="cls-10" transform="translate(109.95 505.13)">h</text><text class="cls-11" transform="translate(180.2 505.13)">vietnam</text></g></g></g></svg>