<svg width="693" height="602" viewBox="0 0 693 602" fill="none" xmlns="http://www.w3.org/2000/svg">
<rect width="693" height="602" fill="#1E1E1E"/>
<rect width="693" height="602" fill="white"/>
<path d="M346 123.15L344.76 127.36V249.84L346 251.07L402.85 217.47L346 123.15Z" fill="#BE9D62"/>
<path d="M346 123.15L289.15 217.47L346 251.07V123.15Z" fill="#E7C27A"/>
<path d="M346 261.84L345.31 262.69V306.32L346 308.32L402.89 228.21L346 261.84Z" fill="#BE9D62"/>
<path d="M346 308.36V261.84L289.15 228.26L346 308.36Z" fill="#E7C27A"/>
<path d="M346 251.07L402.85 217.47L346 191.63V251.07Z" fill="#D6B47C"/>
<path d="M289.14 217.47L346 251.07V191.63L289.14 217.47Z" fill="#E6CC9A"/>
<path d="M443.35 336.33L435.48 328.48C410.057 348.733 378.514 359.761 346.01 359.761C313.506 359.761 281.963 348.733 256.54 328.48L248.68 336.33C276.218 358.631 310.579 370.8 346.015 370.8C381.451 370.8 415.812 358.631 443.35 336.33Z" fill="url(#paint0_linear_0_1)"/>
<path d="M241.88 296.2L249.73 288.35C232.235 265.148 223.714 236.406 225.736 207.418C227.758 178.431 240.186 151.15 260.732 130.601C281.278 110.053 308.558 97.6206 337.546 95.5954C366.533 93.5702 395.276 102.088 418.48 119.58L426.38 111.72C401.09 92.0247 369.476 82.2482 337.483 84.2291C305.489 86.21 275.322 99.8119 252.655 122.477C229.988 145.141 216.383 175.307 214.399 207.3C212.414 239.292 222.187 270.908 241.88 296.2Z" fill="url(#paint1_linear_0_1)"/>
<path d="M346 37C300.556 36.9777 256.826 54.3452 223.78 85.54C221.113 88.0733 218.513 90.6767 215.98 93.35L223.78 101.15L232.64 110.02C204.605 139.984 189.619 179.857 190.981 220.868C192.342 261.88 209.939 300.672 239.9 328.71L240.31 329.09L248.1 321.28L256.82 312.56C281.767 335.694 314.708 348.26 348.725 347.619C382.741 346.978 415.185 333.18 439.243 309.123C463.301 285.066 477.101 252.623 477.744 218.606C478.386 184.59 465.822 151.648 442.69 126.7L451.55 117.83L459.36 110.02C456.867 107.353 454.287 104.78 451.62 102.3C422.975 75.5694 385.255 60.7032 346.075 60.7032C306.895 60.7032 269.175 75.5694 240.53 102.3L231.66 93.43C262.6 64.2879 303.496 48.0532 346 48.04C438.38 48.04 513.54 123.2 513.54 215.58C513.564 258.096 497.358 299.019 468.23 329.99L459.5 321.26C484.971 293.97 499.716 258.391 501.017 221.085C502.318 183.778 490.088 147.258 466.58 118.26L458.74 126.12C481.386 154.504 492.448 190.407 489.702 226.614C486.957 262.821 470.607 296.646 443.94 321.29L460.46 337.82C429.49 366.95 388.567 383.157 346.05 383.13C253.67 383.13 178.51 307.98 178.51 215.6C178.464 176.871 191.899 139.334 216.51 109.43L208.68 101.59C182.012 133.588 167.43 173.936 167.48 215.59C167.48 314.05 247.58 394.17 346.05 394.17C391.496 394.191 435.226 376.819 468.27 345.62C470.96 343.1 473.56 340.49 476.07 337.82C507.268 304.776 524.636 261.045 524.61 215.6C524.58 117.11 444.47 37 346 37ZM346 71.66C382.258 71.64 417.179 85.349 443.74 110.03L434.87 118.92L427.07 126.72C429.803 129.187 432.407 131.787 434.88 134.52C455.847 157.411 467.17 187.511 466.489 218.546C465.808 249.58 453.175 279.155 431.224 301.104C409.274 323.054 379.699 335.684 348.664 336.364C317.629 337.043 287.53 325.718 264.64 304.75C261.93 302.26 259.32 299.69 256.84 296.93L249.04 304.74L240.31 313.47C215.651 286.896 201.964 251.973 202 215.72C202 136.28 266.6 71.66 346 71.66Z" fill="url(#paint2_linear_0_1)"/>
<path d="M67.9679 539.805C61.6413 539.805 56.0712 538.567 51.2576 536.092C46.5127 533.616 42.8336 530.247 40.2205 525.983C37.6074 521.651 36.3008 516.734 36.3008 511.233C36.3008 505.663 37.573 500.746 40.1174 496.482C42.7305 492.15 46.272 488.78 50.7418 486.374C55.2116 483.898 60.266 482.66 65.9049 482.66C71.3374 482.66 76.2199 483.829 80.5522 486.167C84.9532 488.437 88.4259 491.737 90.9703 496.07C93.5147 500.333 94.7869 505.456 94.7869 511.439C94.7869 512.058 94.7525 512.78 94.6837 513.605C94.6149 514.362 94.5462 515.084 94.4774 515.771H49.4009V506.385H86.0191L79.8301 509.17C79.8301 506.281 79.2456 503.771 78.0766 501.64C76.9075 499.508 75.2915 497.858 73.2285 496.689C71.1655 495.451 68.7587 494.832 66.008 494.832C63.2573 494.832 60.8161 495.451 58.6844 496.689C56.6214 497.858 55.0053 499.542 53.8363 501.743C52.6673 503.875 52.0828 506.419 52.0828 509.376V511.852C52.0828 514.877 52.736 517.559 54.0426 519.897C55.4179 522.167 57.309 523.92 59.7159 525.158C62.1915 526.327 65.0797 526.911 68.3805 526.911C71.3374 526.911 73.9162 526.464 76.1167 525.571C78.386 524.677 80.449 523.336 82.3057 521.548L90.8672 530.831C88.3228 533.719 85.1251 535.954 81.2742 537.536C77.4233 539.049 72.9878 539.805 67.9679 539.805ZM128.193 539.805C121.66 539.805 116.571 538.155 112.927 534.854C109.282 531.484 107.46 526.499 107.46 519.897V471.21H123.551V519.691C123.551 522.029 124.17 523.851 125.408 525.158C126.646 526.396 128.33 527.015 130.462 527.015C133.007 527.015 135.173 526.327 136.961 524.952L141.293 536.298C139.643 537.467 137.648 538.361 135.31 538.98C133.041 539.53 130.669 539.805 128.193 539.805ZM98.8983 497.101V484.723H137.373V497.101H98.8983Z" fill="#E7C27A"/>
<path d="M184.107 482.66C188.508 482.66 192.428 483.554 195.866 485.342C199.373 487.061 202.124 489.743 204.118 493.388C206.112 496.964 207.109 501.571 207.109 507.21V538.98H191.018V509.685C191.018 505.216 190.021 501.915 188.027 499.783C186.101 497.651 183.35 496.585 179.775 496.585C177.23 496.585 174.926 497.135 172.863 498.236C170.869 499.267 169.288 500.883 168.119 503.084C167.018 505.284 166.468 508.104 166.468 511.542V538.98H150.377V462.443H166.468V498.855L162.858 494.213C164.852 490.5 167.706 487.646 171.419 485.651C175.133 483.657 179.362 482.66 184.107 482.66Z" fill="#E7C27A"/>
<path d="M235.687 538.98L212.375 483.485H228.982L248.374 531.244H240.122L260.236 483.485H275.709L252.294 538.98H235.687ZM282.275 538.98V483.485H298.366V538.98H282.275ZM290.321 475.749C287.364 475.749 284.957 474.889 283.1 473.17C281.244 471.451 280.315 469.319 280.315 466.775C280.315 464.231 281.244 462.099 283.1 460.38C284.957 458.661 287.364 457.801 290.321 457.801C293.278 457.801 295.685 458.626 297.541 460.277C299.398 461.858 300.326 463.921 300.326 466.466C300.326 469.147 299.398 471.382 297.541 473.17C295.753 474.889 293.346 475.749 290.321 475.749ZM340.842 539.805C334.515 539.805 328.945 538.567 324.131 536.092C319.386 533.616 315.707 530.247 313.094 525.983C310.481 521.651 309.175 516.734 309.175 511.233C309.175 505.663 310.447 500.746 312.991 496.482C315.604 492.15 319.146 488.78 323.616 486.374C328.085 483.898 333.14 482.66 338.779 482.66C344.211 482.66 349.094 483.829 353.426 486.167C357.827 488.437 361.3 491.737 363.844 496.07C366.388 500.333 367.661 505.456 367.661 511.439C367.661 512.058 367.626 512.78 367.558 513.605C367.489 514.362 367.42 515.084 367.351 515.771H322.275V506.385H358.893L352.704 509.17C352.704 506.281 352.119 503.771 350.95 501.64C349.781 499.508 348.165 497.858 346.102 496.689C344.039 495.451 341.632 494.832 338.882 494.832C336.131 494.832 333.69 495.451 331.558 496.689C329.495 497.858 327.879 499.542 326.71 501.743C325.541 503.875 324.957 506.419 324.957 509.376V511.852C324.957 514.877 325.61 517.559 326.916 519.897C328.292 522.167 330.183 523.92 332.59 525.158C335.065 526.327 337.953 526.911 341.254 526.911C344.211 526.911 346.79 526.464 348.991 525.571C351.26 524.677 353.323 523.336 355.18 521.548L363.741 530.831C361.197 533.719 357.999 535.954 354.148 537.536C350.297 539.049 345.862 539.805 340.842 539.805ZM401.067 539.805C394.534 539.805 389.445 538.155 385.801 534.854C382.156 531.484 380.334 526.499 380.334 519.897V471.21H396.425V519.691C396.425 522.029 397.044 523.851 398.282 525.158C399.52 526.396 401.204 527.015 403.336 527.015C405.88 527.015 408.047 526.327 409.835 524.952L414.167 536.298C412.516 537.467 410.522 538.361 408.184 538.98C405.915 539.53 403.542 539.805 401.067 539.805ZM371.772 497.101V484.723H410.247V497.101H371.772ZM456.93 482.66C461.331 482.66 465.251 483.554 468.689 485.342C472.196 487.061 474.947 489.743 476.941 493.388C478.935 496.964 479.932 501.571 479.932 507.21V538.98H463.841V509.685C463.841 505.216 462.844 501.915 460.849 499.783C458.924 497.651 456.173 496.585 452.597 496.585C450.053 496.585 447.749 497.135 445.686 498.236C443.692 499.267 442.111 500.883 440.942 503.084C439.841 505.284 439.291 508.104 439.291 511.542V538.98H423.2V483.485H438.569V498.855L435.681 494.213C437.675 490.5 440.529 487.646 444.242 485.651C447.956 483.657 452.185 482.66 456.93 482.66ZM528.558 538.98V528.149L527.526 525.777V506.385C527.526 502.946 526.46 500.264 524.329 498.339C522.266 496.413 519.068 495.451 514.736 495.451C511.779 495.451 508.856 495.932 505.968 496.895C503.148 497.789 500.742 499.027 498.747 500.608L492.971 489.365C495.997 487.233 499.641 485.583 503.905 484.414C508.168 483.245 512.501 482.66 516.902 482.66C525.36 482.66 531.927 484.654 536.603 488.643C541.28 492.631 543.618 498.855 543.618 507.313V538.98H528.558ZM511.641 539.805C507.309 539.805 503.595 539.083 500.501 537.639C497.406 536.126 495.034 534.098 493.384 531.553C491.733 529.009 490.908 526.155 490.908 522.992C490.908 519.691 491.699 516.803 493.28 514.327C494.931 511.852 497.51 509.926 501.017 508.551C504.524 507.107 509.097 506.385 514.736 506.385H529.486V515.771H516.489C512.707 515.771 510.094 516.39 508.65 517.628C507.274 518.866 506.587 520.413 506.587 522.27C506.587 524.333 507.378 525.983 508.959 527.221C510.61 528.39 512.845 528.974 515.664 528.974C518.346 528.974 520.753 528.356 522.884 527.118C525.016 525.811 526.564 523.92 527.526 521.445L530.002 528.871C528.833 532.447 526.701 535.163 523.607 537.02C520.512 538.877 516.524 539.805 511.641 539.805ZM629.252 482.66C633.653 482.66 637.538 483.554 640.907 485.342C644.346 487.061 647.028 489.743 648.953 493.388C650.947 496.964 651.945 501.571 651.945 507.21V538.98H635.853V509.685C635.853 505.216 634.925 501.915 633.068 499.783C631.211 497.651 628.598 496.585 625.229 496.585C622.891 496.585 620.793 497.135 618.937 498.236C617.08 499.267 615.636 500.849 614.604 502.981C613.573 505.112 613.057 507.829 613.057 511.13V538.98H596.966V509.685C596.966 505.216 596.037 501.915 594.181 499.783C592.393 497.651 589.814 496.585 586.444 496.585C584.106 496.585 582.009 497.135 580.152 498.236C578.295 499.267 576.851 500.849 575.82 502.981C574.788 505.112 574.273 507.829 574.273 511.13V538.98H558.181V483.485H573.551V498.648L570.662 494.213C572.588 490.431 575.304 487.577 578.811 485.651C582.387 483.657 586.444 482.66 590.983 482.66C596.072 482.66 600.507 483.967 604.289 486.58C608.14 489.124 610.685 493.044 611.922 498.339L606.249 496.792C608.106 492.459 611.063 489.021 615.12 486.477C619.246 483.932 623.956 482.66 629.252 482.66Z" fill="#75323C"/>
<defs>
<linearGradient id="paint0_linear_0_1" x1="248.68" y1="349.64" x2="443.35" y2="349.64" gradientUnits="userSpaceOnUse">
<stop stop-color="#7C555D"/>
<stop offset="0.28" stop-color="#E7C27A"/>
<stop offset="0.67" stop-color="#E6CC9A"/>
<stop offset="1" stop-color="#FFD96C"/>
</linearGradient>
<linearGradient id="paint1_linear_0_1" x1="214.4" y1="190.09" x2="426.34" y2="190.09" gradientUnits="userSpaceOnUse">
<stop stop-color="#75323C"/>
<stop offset="0.03" stop-color="#824243"/>
<stop offset="0.28" stop-color="#E7C27A"/>
<stop offset="0.67" stop-color="#E6CC9A"/>
<stop offset="1" stop-color="#FFD96C"/>
</linearGradient>
<linearGradient id="paint2_linear_0_1" x1="167.43" y1="215.58" x2="524.56" y2="215.58" gradientUnits="userSpaceOnUse">
<stop stop-color="#75323C"/>
<stop offset="0.03" stop-color="#824243"/>
<stop offset="0.28" stop-color="#E7C27A"/>
<stop offset="0.67" stop-color="#E6CC9A"/>
<stop offset="1" stop-color="#FFD96C"/>
</linearGradient>
</defs>
</svg>
